<svg xmlns="http://www.w3.org/2000/svg" width="1024" height="1024" viewBox="0 0 1024 1024">
<g>
<path d="M 525.50 795.12 C522.50,794.09 517.65,791.65 516.33,790.51 C515.69,789.96 513.95,788.60 512.48,787.50 C491.41,771.81 458.10,727.19 437.01,686.42 C434.67,681.90 432.33,677.61 430.85,675.12 C432.01,676.97 433.64,679.71 435.20,682.50 C437.68,686.90 442.10,694.44 445.03,699.25 C450.20,707.76 451.54,709.58 450.36,706.50 C449.67,704.70 451.59,704.46 452.41,706.25 C452.72,706.94 452.75,706.56 452.48,705.42 C452.07,703.74 452.41,703.37 454.24,703.50 C455.48,703.59 458.19,703.29 460.26,702.83 C462.33,702.36 465.58,701.79 467.49,701.54 C469.39,701.30 471.75,700.69 472.72,700.20 C473.70,699.70 477.42,698.70 481.00,697.96 C484.58,697.23 488.09,696.04 488.82,695.32 C489.55,694.59 491.35,693.76 492.82,693.46 C500.70,691.86 511.59,688.66 513.57,687.36 C514.82,686.54 517.99,685.67 520.62,685.41 C523.26,685.15 526.21,684.21 527.19,683.32 C529.21,681.50 537.97,680.34 540.71,681.53 C541.69,681.96 543.11,682.21 543.85,682.09 C544.59,681.97 544.90,682.35 544.54,682.93 C544.18,683.52 544.36,684.00 544.94,684.00 C546.17,684.00 546.22,683.73 545.40,681.59 C545.06,680.72 544.39,680.26 543.91,680.56 C543.42,680.86 543.26,680.49 543.54,679.75 C543.83,679.01 541.35,672.88 538.03,666.14 C534.71,659.40 532.00,653.55 532.00,653.13 C532.00,652.71 523.97,636.64 514.15,617.43 C508.35,606.07 498.47,586.71 487.99,566.14 C498.72,587.19 509.39,608.08 516.51,622.00 C549.56,686.62 573.63,735.04 575.04,739.73 C576.19,743.58 576.08,744.32 573.58,749.42 C569.55,757.65 554.30,777.53 545.87,785.53 C536.05,794.85 531.28,797.09 525.50,795.12 ZM 623.71 637.07 L 619.50 633.14 L 619.33 551.24 C619.45,563.43 619.60,572.17 619.75,575.50 C620.34,588.07 620.62,590.21 621.08,585.50 C621.51,581.10 621.74,580.43 621.95,583.00 C622.10,584.92 622.44,585.71 622.69,584.75 C622.96,583.73 624.10,583.00 625.44,583.00 C626.70,583.00 628.87,582.10 630.27,581.00 C631.67,579.90 633.53,579.00 634.40,579.00 C635.28,579.00 637.73,577.43 639.85,575.52 C641.97,573.60 643.96,572.30 644.28,572.61 C644.60,572.93 645.39,571.46 646.05,569.34 C648.00,563.04 648.82,530.60 648.91,456.00 C648.92,446.27 648.93,437.88 648.93,430.62 C648.99,448.57 649.00,473.39 649.00,507.85 C649.00,620.07 648.86,630.49 647.33,633.72 C644.95,638.73 640.72,640.99 633.71,641.00 C628.35,641.00 627.61,640.71 623.71,637.07 ZM 687.48 564.03 C682.96,563.01 679.36,560.28 677.59,556.54 C676.17,553.55 676.00,541.22 676.00,439.25 L 676.00 325.30 L 676.00 402.90 C676.00,445.58 676.30,496.47 676.67,516.00 C677.03,535.52 677.55,550.82 677.82,550.00 C678.67,547.37 683.02,544.00 685.56,544.00 C686.90,544.00 689.69,543.10 691.74,542.00 C693.79,540.90 696.16,540.00 697.01,540.00 C700.13,540.00 703.00,536.99 703.02,533.69 C703.03,531.50 703.30,530.93 703.90,531.87 C704.97,533.56 705.65,509.83 705.84,466.94 C705.98,542.32 705.74,552.32 704.46,555.71 C702.04,562.09 694.73,565.67 687.48,564.03 ZM 363.24 322.00 C369.02,333.27 382.07,358.70 392.23,378.50 C398.65,391.00 404.42,402.26 410.24,413.64 C404.49,402.40 398.74,391.17 392.23,378.50 C382.07,358.70 369.02,333.27 363.24,322.00 ZM 620.50 382.17 C620.65,381.81 620.81,381.53 620.99,381.24 C621.84,379.85 622.86,378.66 624.00,377.67 C622.86,378.66 621.84,379.85 620.99,381.24 C620.81,381.54 620.65,381.82 620.50,382.17 Z" fill="rgba(110,37,221,1)"/>
<path d="M 445.03 699.25 C442.10,694.44 437.68,686.90 435.20,682.50 C432.73,678.10 430.12,673.81 429.40,672.97 C428.67,672.12 425.56,666.50 422.46,660.47 C419.37,654.44 416.29,648.83 415.61,648.00 C414.93,647.17 413.50,644.47 412.44,642.00 C411.38,639.53 407.64,632.33 404.14,626.00 C402.14,622.40 399.70,617.86 397.50,613.71 C399.21,616.90 401.10,620.40 402.93,623.73 C410.78,638.00 411.40,638.84 412.90,637.16 C414.52,635.33 418.16,635.04 421.61,636.45 C425.62,638.09 433.81,638.15 436.88,636.56 C438.79,635.58 442.52,635.00 447.02,635.00 C450.93,635.00 455.02,634.52 456.11,633.94 C457.19,633.36 463.12,632.72 469.29,632.52 C481.31,632.13 486.20,631.61 487.95,630.53 C488.56,630.15 490.37,629.68 491.97,629.48 C493.58,629.28 496.21,628.43 497.83,627.59 C500.81,626.05 504.81,625.12 510.82,624.57 C512.64,624.40 514.67,623.69 515.32,622.99 C516.25,621.98 516.18,621.88 515.00,622.50 C513.80,623.14 513.74,623.03 514.72,621.98 C515.43,621.21 514.54,618.50 510.46,610.21 C511.82,612.87 513.06,615.29 514.15,617.43 C523.97,636.64 532.00,652.71 532.00,653.13 C532.00,653.55 534.71,659.40 538.03,666.14 C541.35,672.88 543.83,679.01 543.54,679.75 C543.26,680.49 543.42,680.86 543.91,680.56 C544.39,680.26 545.06,680.72 545.40,681.59 C546.22,683.73 546.17,684.00 544.94,684.00 C544.36,684.00 544.18,683.52 544.54,682.93 C544.90,682.35 544.59,681.97 543.85,682.09 C543.11,682.21 541.69,681.96 540.71,681.53 C537.97,680.34 529.21,681.50 527.19,683.32 C526.21,684.21 523.26,685.15 520.62,685.41 C517.99,685.67 514.82,686.54 513.57,687.36 C511.59,688.66 500.70,691.86 492.82,693.46 C491.35,693.76 489.55,694.59 488.82,695.32 C488.09,696.04 484.58,697.23 481.00,697.96 C477.42,698.70 473.70,699.70 472.72,700.20 C471.75,700.69 469.39,701.30 467.49,701.54 C465.58,701.79 462.33,702.36 460.26,702.83 C458.19,703.29 455.48,703.59 454.24,703.50 C452.41,703.37 452.07,703.74 452.48,705.42 C452.75,706.56 452.72,706.94 452.41,706.25 C451.59,704.46 449.67,704.70 450.36,706.50 C451.54,709.58 450.20,707.76 445.03,699.25 ZM 272.70 371.77 C271.27,368.86 269.56,365.47 267.77,362.00 C237.95,304.24 229.55,286.87 229.55,282.97 C229.55,277.25 232.66,274.63 243.00,271.67 C252.67,268.89 260.91,267.55 272.38,267.21 C270.27,267.34 269.00,267.56 269.00,267.87 C269.00,268.49 269.45,269.00 269.99,269.00 C270.54,269.00 272.80,269.78 275.01,270.74 C278.64,272.32 279.01,272.80 278.81,275.81 C278.68,277.64 278.25,279.35 277.83,279.60 C277.42,279.86 277.31,280.66 277.59,281.38 C277.87,282.10 277.39,284.67 276.52,287.10 C275.66,289.52 274.53,295.04 274.01,299.36 C273.49,303.68 272.54,307.85 271.91,308.61 C271.02,309.68 271.07,310.00 272.13,310.02 C272.99,310.02 273.11,310.30 272.46,310.77 C271.89,311.17 271.28,315.09 271.12,319.49 C270.95,323.88 270.39,328.27 269.87,329.24 C269.35,330.21 269.26,331.00 269.66,331.00 C270.07,331.00 269.90,331.50 269.28,332.12 C268.65,332.75 268.40,334.71 268.71,336.60 C269.12,339.13 268.85,340.12 267.63,340.59 C266.52,341.01 266.00,342.42 266.00,344.98 C266.00,347.06 265.38,349.27 264.63,349.89 C263.54,350.80 263.00,350.41 261.99,347.98 C261.30,346.31 260.54,345.12 260.31,345.35 C260.09,345.58 263.75,353.53 268.45,363.01 C270.00,366.13 271.45,369.13 272.70,371.77 ZM 619.75 575.50 C619.34,566.70 619.01,520.12 619.01,472.00 C619.01,465.43 619.01,459.35 619.01,453.73 C619.05,484.46 619.36,510.85 619.73,514.10 C620.43,520.33 620.47,520.39 621.09,516.50 C621.65,512.95 621.74,512.83 621.94,515.50 C622.06,517.15 622.38,517.94 622.66,517.26 C623.03,516.35 623.68,516.30 625.09,517.05 C626.63,517.87 628.78,517.25 635.53,514.04 C640.21,511.82 644.48,510.00 645.02,510.00 C645.56,510.00 646.00,509.52 646.00,508.94 C646.00,508.36 646.38,508.12 646.85,508.41 C648.01,509.13 648.66,496.30 648.89,466.42 C648.74,533.64 647.91,563.34 646.05,569.34 C645.39,571.46 644.60,572.93 644.28,572.61 C643.96,572.30 641.97,573.60 639.85,575.52 C637.73,577.43 635.28,579.00 634.40,579.00 C633.53,579.00 631.67,579.90 630.27,581.00 C628.87,582.10 626.70,583.00 625.44,583.00 C624.10,583.00 622.96,583.73 622.69,584.75 C622.44,585.71 622.10,584.92 621.95,583.00 C621.74,580.43 621.51,581.10 621.08,585.50 C620.62,590.21 620.34,588.07 619.75,575.50 ZM 676.67 516.00 C676.30,496.47 676.00,445.58 676.00,402.90 L 676.00 325.30 L 676.00 388.90 C676.00,423.88 676.34,461.73 676.74,473.00 C677.21,485.98 677.70,491.67 678.08,488.50 C678.41,485.75 678.76,484.24 678.84,485.14 C678.98,486.55 679.61,486.65 683.17,485.85 C685.46,485.34 688.50,484.34 689.92,483.64 C698.53,479.37 700.55,477.96 702.05,475.16 C702.97,473.45 703.96,472.29 704.25,472.59 C705.18,473.52 705.77,453.98 705.88,420.95 C706.04,492.37 705.31,534.10 703.90,531.87 C703.30,530.93 703.03,531.50 703.02,533.69 C703.00,536.99 700.13,540.00 697.01,540.00 C696.16,540.00 693.79,540.90 691.74,542.00 C689.69,543.10 686.90,544.00 685.56,544.00 C683.02,544.00 678.67,547.37 677.82,550.00 C677.55,550.82 677.03,535.52 676.67,516.00 ZM 742.09 491.84 C740.22,490.55 737.74,488.23 736.59,486.68 C735.09,484.65 734.67,484.07 734.55,444.54 C734.55,444.71 734.56,444.86 734.57,445.00 C735.01,452.88 735.56,456.76 736.06,455.50 C736.50,454.40 736.89,454.09 736.93,454.82 C736.99,455.92 737.23,455.92 738.34,454.82 C739.08,454.09 742.00,452.38 744.83,451.00 C747.67,449.62 750.24,447.74 750.54,446.80 C750.85,445.87 751.90,444.85 752.87,444.54 C753.85,444.23 755.71,442.98 757.02,441.77 C760.74,438.30 762.00,438.64 762.00,443.09 C762.00,445.24 762.45,447.00 763.00,447.00 C763.66,447.00 764.00,417.48 764.00,360.45 C764.00,352.94 764.00,346.07 764.00,339.76 C764.01,350.75 764.00,363.46 764.00,378.20 C764.00,475.52 763.88,482.73 762.25,485.93 C759.82,490.69 755.99,493.20 750.32,493.73 C746.43,494.09 744.84,493.73 742.09,491.84 ZM 797.90 434.73 C791.62,430.54 791.06,428.10 791.04,405.01 C791.04,400.00 791.06,396.15 791.11,393.13 C791.12,394.92 791.16,397.02 791.20,399.50 C791.46,412.51 791.75,414.78 793.39,416.65 C795.65,419.23 797.53,418.76 808.06,412.97 C812.47,410.54 815.07,409.61 815.37,410.35 C815.63,410.98 815.93,410.15 816.04,408.50 L 816.24 405.50 L 816.94 408.50 C817.40,410.48 817.90,407.02 818.43,398.27 C818.64,394.78 818.78,392.18 818.83,390.15 C818.96,393.63 818.99,398.59 818.99,405.98 C818.97,429.63 818.70,430.94 813.09,434.72 C808.59,437.75 802.42,437.75 797.90,434.73 ZM 569.99 540.75 C568.17,539.51 565.74,537.23 564.59,535.68 C562.56,532.93 562.49,531.69 562.22,490.39 C562.19,485.52 562.16,481.20 562.14,477.37 C562.18,480.80 562.23,484.62 562.28,488.90 C562.56,511.23 563.16,530.62 563.62,532.00 C564.45,534.46 564.46,534.47 564.80,532.25 C564.99,531.01 565.51,530.00 565.95,530.00 C566.40,530.00 567.00,529.10 567.29,528.00 C567.61,526.79 568.65,526.00 569.94,526.00 C571.10,526.00 574.79,524.85 578.13,523.44 C581.47,522.04 585.40,521.03 586.85,521.19 C589.12,521.46 589.54,522.03 589.81,525.25 C589.98,527.31 590.56,529.00 591.10,529.00 C591.68,529.00 591.94,516.20 591.83,492.99 C592.10,535.77 591.71,537.16 585.56,540.96 C581.04,543.76 574.28,543.67 569.99,540.75 ZM 495.13 580.16 C486.93,564.11 475.68,542.05 465.48,522.00 C439.75,471.41 424.79,442.06 409.56,412.30 C424.41,441.31 439.08,470.09 466.53,524.00 C475.46,541.55 485.90,562.04 495.13,580.16 ZM 317.90 270.27 C326.04,272.36 331.67,275.80 337.77,281.45 C331.90,276.01 326.06,272.69 317.90,270.27 ZM 391.64 602.38 C389.38,598.08 386.75,593.42 385.20,591.00 C383.26,587.97 372.58,567.50 361.47,545.50 C372.58,567.50 383.36,588.12 385.41,591.32 C387.38,594.37 390.10,599.22 391.64,602.38 ZM 808.17 374.48 C811.86,375.27 815.24,377.46 817.17,381.06 C817.33,381.35 817.47,381.63 817.59,381.93 C817.51,381.75 817.41,381.56 817.31,381.37 C815.36,377.61 811.92,375.31 808.17,374.48 ZM 573.15 435.68 C569.23,436.76 565.73,439.43 563.88,443.55 C563.89,443.51 563.91,443.47 563.93,443.44 C565.73,439.36 569.22,436.74 573.15,435.68 ZM 316.11 457.84 C313.93,454.32 305.41,437.71 296.34,419.27 C294.75,416.03 293.20,412.88 291.71,409.88 C293.20,412.88 294.76,416.03 296.35,419.27 C305.41,437.71 313.93,454.32 316.11,457.84 ZM 761.54 269.24 C761.20,268.59 760.82,268.10 760.38,267.66 C759.70,266.97 758.91,266.42 757.96,265.62 C758.86,266.37 759.62,266.88 760.27,267.51 C760.75,267.97 761.17,268.50 761.54,269.24 ZM 297.39 267.61 C298.19,267.66 298.98,267.70 299.75,267.75 C298.97,267.71 298.18,267.66 297.39,267.61 Z" fill="rgba(142,60,246,1)"/>
<path d="M 317.94 460.40 C317.52,459.79 317.01,459.08 316.46,458.36 C315.07,456.53 306.02,438.94 296.35,419.27 C286.68,399.60 278.38,383.35 277.89,383.17 C277.40,382.98 277.00,382.25 277.00,381.55 C277.00,380.84 273.15,372.50 268.45,363.01 C263.75,353.53 260.09,345.58 260.31,345.35 C260.54,345.12 261.30,346.31 261.99,347.98 C263.00,350.41 263.54,350.80 264.63,349.89 C265.38,349.27 266.00,347.06 266.00,344.98 C266.00,342.42 266.52,341.01 267.63,340.59 C268.85,340.12 269.12,339.13 268.71,336.60 C268.40,334.71 268.65,332.75 269.28,332.12 C269.90,331.50 270.07,331.00 269.66,331.00 C269.26,331.00 269.35,330.21 269.87,329.24 C270.39,328.27 270.95,323.88 271.12,319.49 C271.28,315.09 271.89,311.17 272.46,310.77 C273.11,310.30 272.99,310.02 272.13,310.02 C271.07,310.00 271.02,309.68 271.91,308.61 C272.54,307.85 273.49,303.68 274.01,299.36 C274.53,295.04 275.66,289.52 276.52,287.10 C277.39,284.67 277.87,282.10 277.59,281.38 C277.31,280.66 277.42,279.86 277.83,279.60 C278.25,279.35 278.68,277.64 278.81,275.81 C279.01,272.80 278.64,272.32 275.01,270.74 C272.80,269.78 270.54,269.00 269.99,269.00 C269.45,269.00 269.00,268.49 269.00,267.87 C269.00,266.16 306.80,267.40 314.63,269.38 C324.55,271.88 331.15,275.32 337.77,281.45 C345.21,288.33 349.39,294.99 363.24,322.00 C368.55,332.36 379.99,354.65 389.70,373.56 C379.12,353.06 373.19,341.79 372.55,341.00 C371.87,340.17 369.62,336.41 367.55,332.64 C365.48,328.87 362.98,324.98 362.01,324.01 C361.04,323.04 360.06,321.68 359.83,320.98 C358.94,318.33 355.46,321.87 353.61,327.30 C352.59,330.32 350.68,334.03 349.37,335.55 C348.07,337.07 347.00,338.65 347.00,339.06 C347.00,339.47 345.45,341.66 343.56,343.93 C341.67,346.19 339.82,349.05 339.46,350.27 C339.09,351.50 336.64,357.00 334.01,362.50 C329.49,371.92 326.56,380.00 327.65,380.00 C327.92,380.00 327.23,381.28 326.12,382.83 C325.01,384.39 323.90,386.77 323.66,388.12 C323.41,389.46 321.77,393.23 320.01,396.48 C316.63,402.74 313.88,413.19 313.45,421.50 C313.31,424.25 312.89,427.62 312.52,429.00 C311.96,431.07 311.56,444.05 311.91,448.81 C311.96,449.53 312.51,449.80 313.15,449.40 C313.86,448.97 314.04,449.13 313.60,449.83 C313.26,450.39 313.57,451.65 317.94,460.40 ZM 402.93 623.73 C398.33,615.35 393.34,605.94 391.85,602.82 C390.37,599.70 387.47,594.52 385.41,591.32 C383.36,588.12 372.58,567.50 361.47,545.50 C352.65,528.05 341.96,507.07 334.86,493.27 C339.01,501.26 343.95,510.74 349.81,522.00 C371.22,563.10 372.41,565.25 373.24,564.43 C373.55,564.12 374.95,565.38 376.35,567.22 C377.80,569.12 379.90,570.64 381.20,570.73 C386.01,571.07 390.26,572.18 393.33,573.90 C395.07,574.87 398.52,575.99 400.99,576.39 C403.46,576.78 406.38,577.93 407.49,578.95 C408.59,579.97 410.40,580.98 411.50,581.19 C415.98,582.07 446.27,582.01 457.09,581.11 C468.60,580.14 481.87,577.68 485.29,575.88 C486.28,575.36 487.46,575.17 487.93,575.45 C489.48,576.41 489.81,572.13 488.48,568.29 C487.77,566.21 483.60,557.70 468.82,528.55 C483.21,556.83 498.77,587.31 504.57,598.58 C513.67,616.24 515.70,620.92 514.72,621.98 C513.74,623.03 513.80,623.14 515.00,622.50 C516.18,621.88 516.25,621.98 515.32,622.99 C514.67,623.69 512.64,624.40 510.82,624.57 C504.81,625.12 500.81,626.05 497.83,627.59 C496.21,628.43 493.58,629.28 491.97,629.48 C490.37,629.68 488.56,630.15 487.95,630.53 C486.20,631.61 481.31,632.13 469.29,632.52 C463.12,632.72 457.19,633.36 456.11,633.94 C455.02,634.52 450.93,635.00 447.02,635.00 C442.52,635.00 438.79,635.58 436.88,636.56 C433.81,638.15 425.62,638.09 421.61,636.45 C418.16,635.04 414.52,635.33 412.90,637.16 C411.40,638.84 410.78,638.00 402.93,623.73 ZM 734.57 445.00 C734.24,439.01 734.06,406.38 734.14,368.72 C734.19,385.13 734.34,397.58 734.57,401.00 C735.02,407.85 735.54,410.80 736.06,409.50 L 736.86 407.50 L 737.01 409.50 C737.09,410.60 737.38,410.94 737.66,410.25 C737.94,409.56 738.80,409.00 739.58,409.00 C740.36,409.00 741.00,408.64 741.00,408.20 C741.00,407.76 743.05,406.10 745.55,404.52 C748.05,402.94 750.41,401.16 750.80,400.57 C752.15,398.49 759.02,393.89 759.93,394.46 C760.44,394.77 761.05,394.01 761.29,392.76 C761.53,391.52 761.79,392.41 761.86,394.75 C761.94,397.09 762.45,399.00 763.00,399.00 C763.66,399.00 764.00,377.48 764.00,336.45 C764.00,332.88 764.00,329.50 764.00,326.31 C764.01,335.94 764.00,347.22 764.00,360.45 C764.00,417.48 763.66,447.00 763.00,447.00 C762.45,447.00 762.00,445.24 762.00,443.09 C762.00,438.64 760.74,438.30 757.02,441.77 C755.71,442.98 753.85,444.23 752.87,444.54 C751.90,444.85 750.85,445.87 750.54,446.80 C750.24,447.74 747.67,449.62 744.83,451.00 C742.00,452.38 739.08,454.09 738.34,454.82 C737.23,455.92 736.99,455.92 736.93,454.82 C736.89,454.09 736.50,454.40 736.06,455.50 C735.56,456.76 735.01,452.88 734.57,445.00 ZM 676.74 473.00 C676.34,461.73 676.00,423.88 676.00,388.90 L 676.00 325.30 L 676.00 374.90 C676.01,402.18 676.33,429.67 676.72,436.00 C677.22,444.15 677.62,446.48 678.08,444.00 C678.59,441.29 678.77,441.06 678.88,443.00 C678.97,444.45 679.34,445.03 679.77,444.38 C680.17,443.77 681.62,442.94 683.00,442.55 C688.56,440.94 700.32,434.41 700.79,432.67 C701.17,431.24 701.46,431.13 702.12,432.17 C702.67,433.02 703.03,431.89 703.13,429.00 L 703.30 424.50 L 703.94 429.00 C704.79,434.97 705.62,413.77 705.84,387.22 C706.09,440.17 705.47,473.80 704.25,472.59 C703.96,472.29 702.97,473.45 702.05,475.16 C700.55,477.96 698.53,479.37 689.92,483.64 C688.50,484.34 685.46,485.34 683.17,485.85 C679.61,486.65 678.98,486.55 678.84,485.14 C678.76,484.24 678.41,485.75 678.08,488.50 C677.70,491.67 677.21,485.98 676.74,473.00 ZM 563.62 532.00 C563.16,530.62 562.56,511.23 562.28,488.90 C561.85,454.25 561.83,449.05 563.19,445.21 C561.73,450.83 561.82,460.28 562.73,477.59 C563.23,487.20 563.65,490.26 564.08,487.50 C564.43,485.30 564.79,484.17 564.89,485.00 C565.04,486.29 565.19,486.28 565.98,484.92 C566.62,483.84 568.63,483.28 572.38,483.12 C575.39,483.00 579.34,482.48 581.17,481.95 C586.80,480.34 590.00,480.72 590.00,483.00 C590.00,484.10 590.48,485.00 591.07,485.00 C591.39,485.00 591.62,483.82 591.75,481.36 L 591.79 486.75 C591.98,513.89 591.73,529.00 591.10,529.00 C590.56,529.00 589.98,527.31 589.81,525.25 C589.54,522.03 589.12,521.46 586.85,521.19 C585.40,521.03 581.47,522.04 578.13,523.44 C574.79,524.85 571.10,526.00 569.94,526.00 C568.65,526.00 567.61,526.79 567.29,528.00 C567.00,529.10 566.40,530.00 565.95,530.00 C565.51,530.00 564.99,531.01 564.80,532.25 C564.46,534.47 564.45,534.46 563.62,532.00 ZM 619.73 514.10 C619.33,510.59 619.00,479.99 619.00,446.10 C619.00,440.34 619.01,435.11 619.01,430.36 C619.05,451.14 619.35,469.83 619.72,473.10 C620.37,478.91 620.49,479.18 621.09,476.00 C621.59,473.29 621.77,473.07 621.88,475.00 C621.99,476.81 622.27,477.12 622.89,476.14 C623.51,475.16 623.95,475.10 624.46,475.93 C625.24,477.20 627.41,476.73 633.50,473.99 C635.70,473.00 639.29,471.40 641.48,470.44 C643.29,469.64 644.64,469.21 645.65,468.36 C648.76,465.75 648.55,459.19 648.80,425.57 C648.87,416.97 648.91,410.19 648.92,404.80 C648.98,412.24 648.99,422.29 648.99,436.00 C648.99,487.71 648.35,509.33 646.85,508.41 C646.38,508.12 646.00,508.36 646.00,508.94 C646.00,509.52 645.56,510.00 645.02,510.00 C644.48,510.00 640.21,511.82 635.53,514.04 C628.78,517.25 626.63,517.87 625.09,517.05 C623.68,516.30 623.03,516.35 622.66,517.26 C622.38,517.94 622.06,517.15 621.94,515.50 C621.74,512.83 621.65,512.95 621.09,516.50 C620.47,520.39 620.43,520.33 619.73,514.10 ZM 793.39 416.65 C791.75,414.78 791.46,412.51 791.20,399.50 C790.95,386.37 791.14,384.07 792.78,381.08 C797.92,371.68 812.37,371.85 817.31,381.37 C819.04,384.70 819.15,386.28 818.43,398.27 C817.90,407.02 817.40,410.48 816.94,408.50 L 816.24 405.50 L 816.04 408.50 C815.93,410.15 815.63,410.98 815.37,410.35 C815.07,409.61 812.47,410.54 808.06,412.97 C797.53,418.76 795.65,419.23 793.39,416.65 ZM 589.10 441.14 L 591.50 444.50 L 591.55 452.12 C591.28,444.55 590.75,443.45 589.10,441.14 ZM 568.68 437.76 C571.70,435.67 575.46,434.80 579.09,435.24 C576.32,435.01 573.32,435.58 570.22,436.99 C569.67,437.24 569.16,437.49 568.68,437.76 ZM 757.96 265.62 C758.91,266.42 759.70,266.97 760.38,267.66 C760.83,268.11 761.22,268.62 761.57,269.29 C761.28,268.77 760.95,268.34 760.59,267.94 C759.87,267.15 759.01,266.50 757.96,265.62 Z" fill="rgba(170,87,247,1)"/>
<path d="M 411.50 581.19 C410.40,580.98 408.59,579.97 407.49,578.95 C406.38,577.93 403.46,576.78 400.99,576.39 C398.52,575.99 395.07,574.87 393.33,573.90 C390.26,572.18 386.01,571.07 381.20,570.73 C379.90,570.64 377.80,569.12 376.35,567.22 C374.95,565.38 373.55,564.12 373.24,564.43 C372.41,565.25 371.22,563.10 349.81,522.00 C314.96,455.11 312.89,450.99 313.60,449.83 C314.04,449.13 313.86,448.97 313.15,449.40 C312.51,449.80 311.96,449.53 311.91,448.81 C311.56,444.05 311.96,431.07 312.52,429.00 C312.89,427.62 313.31,424.25 313.45,421.50 C313.88,413.19 316.63,402.74 320.01,396.48 C321.77,393.23 323.41,389.46 323.66,388.12 C323.90,386.77 325.01,384.39 326.12,382.83 C327.23,381.28 327.92,380.00 327.65,380.00 C326.56,380.00 329.49,371.92 334.01,362.50 C336.64,357.00 339.09,351.50 339.46,350.27 C339.82,349.05 341.67,346.19 343.56,343.93 C345.45,341.66 347.00,339.47 347.00,339.06 C347.00,338.65 348.07,337.07 349.37,335.55 C350.68,334.03 352.59,330.32 353.61,327.30 C355.46,321.87 358.94,318.33 359.83,320.98 C360.06,321.68 361.04,323.04 362.01,324.01 C362.98,324.98 365.48,328.87 367.55,332.64 C369.62,336.41 371.87,340.17 372.55,341.00 C373.73,342.45 392.63,379.02 425.26,443.00 C476.82,544.11 487.31,564.88 488.48,568.29 C489.81,572.13 489.48,576.41 487.93,575.45 C487.46,575.17 486.28,575.36 485.29,575.88 C481.87,577.68 468.60,580.14 457.09,581.11 C446.27,582.01 415.98,582.07 411.50,581.19 ZM 459.36 524.74 C462.12,525.54 466.00,525.87 466.00,525.30 C466.00,523.35 413.11,418.24 410.50,415.00 C409.84,414.17 407.14,409.37 404.51,404.33 C401.11,397.81 399.32,395.33 398.29,395.72 C397.48,396.03 397.05,397.07 397.31,398.07 C397.57,399.06 397.15,400.11 396.39,400.40 C395.63,400.70 395.00,401.87 395.00,403.00 C395.00,404.14 394.36,406.07 393.57,407.29 C392.79,408.50 391.91,412.20 391.62,415.50 C391.34,418.80 390.39,424.55 389.52,428.27 C388.66,431.99 387.71,438.25 387.42,442.19 C387.13,446.12 386.86,449.60 386.82,449.92 C386.79,450.24 386.86,450.95 386.99,451.50 C387.11,452.05 387.36,454.30 387.54,456.50 C388.09,463.19 389.18,469.44 389.99,470.50 C390.41,471.05 391.07,473.70 391.45,476.38 C391.84,479.06 393.02,482.18 394.08,483.32 C395.14,484.45 396.00,486.12 396.00,487.03 C396.00,489.84 398.93,494.75 403.57,499.74 C406.01,502.35 408.00,504.83 408.00,505.25 C408.00,505.66 408.53,506.00 409.17,506.00 C409.82,506.00 411.17,506.75 412.18,507.66 C413.19,508.57 414.85,509.81 415.88,510.41 C416.91,511.01 420.17,513.11 423.13,515.08 C426.09,517.05 429.19,518.70 430.01,518.73 C430.83,518.77 435.23,519.76 439.78,520.93 C444.34,522.11 449.96,523.26 452.28,523.49 C454.60,523.72 457.79,524.28 459.36,524.74 ZM 676.72 436.00 C676.33,429.67 676.01,402.18 676.00,374.90 L 676.00 325.30 L 678.25 321.99 C676.08,325.18 676.00,326.10 676.00,347.90 C676.00,360.33 676.34,378.38 676.75,388.00 C677.16,397.62 677.64,403.73 677.82,401.56 C678.02,399.16 678.45,398.11 678.92,398.87 C679.46,399.74 680.09,399.19 680.96,397.10 C681.91,394.80 684.31,392.94 690.86,389.41 C695.61,386.85 699.87,384.12 700.31,383.35 C700.76,382.59 701.55,382.22 702.06,382.54 C702.58,382.86 703.07,381.85 703.16,380.31 C703.24,378.75 703.59,379.73 703.94,382.50 C704.51,387.04 705.42,370.55 705.79,354.81 C705.80,356.25 705.82,357.75 705.83,359.32 C706.18,396.34 705.08,436.99 703.94,429.00 L 703.30 424.50 L 703.13 429.00 C703.03,431.89 702.67,433.02 702.12,432.17 C701.46,431.13 701.17,431.24 700.79,432.67 C700.32,434.41 688.56,440.94 683.00,442.55 C681.62,442.94 680.17,443.77 679.77,444.38 C679.34,445.03 678.97,444.45 678.88,443.00 C678.77,441.06 678.59,441.29 678.08,444.00 C677.62,446.48 677.22,444.15 676.72,436.00 ZM 734.57 401.00 C734.21,395.58 734.04,367.41 734.16,336.82 C734.23,346.05 734.38,353.25 734.59,356.00 C735.09,362.62 735.54,364.74 736.06,363.00 C736.68,360.89 736.83,360.81 736.98,362.50 C737.08,363.62 737.38,363.95 737.66,363.25 C737.94,362.56 738.69,362.00 739.33,361.99 C740.92,361.99 757.05,351.29 758.65,349.19 C759.36,348.26 759.98,347.95 760.04,348.50 C760.09,349.05 760.53,348.60 761.00,347.50 C761.64,346.01 761.92,346.90 762.11,351.00 C762.54,360.25 763.71,325.01 763.86,298.70 C763.87,296.36 763.89,294.22 763.89,292.25 C764.02,302.08 764.00,316.11 764.00,336.45 C764.00,377.48 763.66,399.00 763.00,399.00 C762.45,399.00 761.94,397.09 761.86,394.75 C761.79,392.41 761.53,391.52 761.29,392.76 C761.05,394.01 760.44,394.77 759.93,394.46 C759.02,393.89 752.15,398.49 750.80,400.57 C750.41,401.16 748.05,402.94 745.55,404.52 C743.05,406.10 741.00,407.76 741.00,408.20 C741.00,408.64 740.36,409.00 739.58,409.00 C738.80,409.00 737.94,409.56 737.66,410.25 C737.38,410.94 737.09,410.60 737.01,409.50 L 736.86 407.50 L 736.06 409.50 C735.54,410.80 735.02,407.85 734.57,401.00 ZM 562.73 477.59 C561.09,446.23 562.12,440.66 570.22,436.99 C577.78,433.55 584.79,435.09 589.10,441.14 C591.41,444.38 591.51,445.24 591.82,464.75 C592.05,478.71 591.81,485.00 591.07,485.00 C590.48,485.00 590.00,484.10 590.00,483.00 C590.00,480.72 586.80,480.34 581.17,481.95 C579.34,482.48 575.39,483.00 572.38,483.12 C568.63,483.28 566.62,483.84 565.98,484.92 C565.19,486.28 565.04,486.29 564.89,485.00 C564.79,484.17 564.43,485.30 564.08,487.50 C563.65,490.26 563.23,487.20 562.73,477.59 ZM 619.72 473.10 C619.32,469.59 619.00,448.21 619.00,425.60 C619.00,418.78 619.01,413.08 619.02,408.31 C619.09,417.34 619.36,426.11 619.69,429.10 C620.22,434.04 620.54,434.93 621.09,433.00 C621.71,430.80 621.81,430.75 621.90,432.62 C621.99,434.52 622.38,434.66 625.75,433.99 C630.54,433.03 646.00,425.38 646.00,423.96 C646.00,423.37 646.38,423.12 646.85,423.41 C647.77,423.98 648.67,414.49 648.92,402.84 C648.92,408.51 648.88,415.89 648.80,425.57 C648.55,459.19 648.76,465.75 645.65,468.36 C644.64,469.21 643.29,469.64 641.48,470.44 C639.29,471.40 635.70,473.00 633.50,473.99 C627.41,476.73 625.24,477.20 624.46,475.93 C623.95,475.10 623.51,475.16 622.89,476.14 C622.27,477.12 621.99,476.81 621.88,475.00 C621.77,473.07 621.59,473.29 621.09,476.00 C620.49,479.18 620.37,478.91 619.72,473.10 ZM 576.91 438.08 C575.75,438.81 575.80,438.97 577.17,438.98 C579.76,439.01 582.05,437.89 581.44,436.90 C581.13,436.40 579.22,436.06 577.19,436.14 C574.56,436.23 574.19,436.40 575.91,436.73 C577.78,437.08 578.00,437.38 576.91,438.08 ZM 757.96 265.62 C759.01,266.50 759.87,267.15 760.59,267.94 C760.99,268.38 761.35,268.88 761.67,269.48 C760.80,268.07 759.60,267.00 757.96,265.62 ZM 635.32 374.05 C640.15,374.47 644.78,377.15 647.30,382.02 C647.73,382.84 648.05,383.66 648.29,385.05 C648.04,383.86 647.69,382.91 647.25,382.02 C644.80,377.14 640.17,374.46 635.32,374.05 ZM 702.74 320.48 C702.97,320.77 703.20,321.07 703.44,321.38 C703.71,321.75 703.95,322.09 704.15,322.50 C703.94,322.10 703.70,321.73 703.42,321.37 C703.19,321.06 702.96,320.76 702.74,320.48 Z" fill="rgba(198,114,249,1)"/>
<path d="M 459.36 524.74 C457.79,524.28 454.60,523.72 452.28,523.49 C449.96,523.26 444.34,522.11 439.78,520.93 C435.23,519.76 430.83,518.77 430.01,518.73 C429.19,518.70 426.09,517.05 423.13,515.08 C420.17,513.11 416.91,511.01 415.88,510.41 C414.85,509.81 413.19,508.57 412.18,507.66 C411.17,506.75 409.82,506.00 409.17,506.00 C408.53,506.00 408.00,505.66 408.00,505.25 C408.00,504.83 406.01,502.35 403.57,499.74 C398.93,494.75 396.00,489.84 396.00,487.03 C396.00,486.12 395.14,484.45 394.08,483.32 C393.02,482.18 391.84,479.06 391.45,476.38 C391.07,473.70 390.41,471.05 389.99,470.50 C389.18,469.44 388.09,463.19 387.54,456.50 C387.36,454.30 387.11,452.05 386.99,451.50 C386.86,450.95 386.79,450.24 386.82,449.92 C386.86,449.60 387.13,446.12 387.42,442.19 C387.71,438.25 388.66,431.99 389.52,428.27 C390.39,424.55 391.34,418.80 391.62,415.50 C391.91,412.20 392.79,408.50 393.57,407.29 C394.36,406.07 395.00,404.14 395.00,403.00 C395.00,401.87 395.63,400.70 396.39,400.40 C397.15,400.11 397.57,399.06 397.31,398.07 C397.05,397.07 397.48,396.03 398.29,395.72 C399.32,395.33 401.11,397.81 404.51,404.33 C407.14,409.37 409.84,414.17 410.50,415.00 C413.11,418.24 466.00,523.35 466.00,525.30 C466.00,525.87 462.12,525.54 459.36,524.74 ZM 576.91 438.08 C578.00,437.38 577.78,437.08 575.91,436.73 C574.19,436.40 574.56,436.23 577.19,436.14 C579.22,436.06 581.13,436.40 581.44,436.90 C582.05,437.89 579.76,439.01 577.17,438.98 C575.80,438.97 575.75,438.81 576.91,438.08 ZM 619.69 429.10 C619.31,425.59 619.00,414.11 619.00,403.60 C619.01,386.31 619.20,384.19 620.99,381.24 C627.09,371.24 642.05,371.68 647.25,382.02 C648.60,384.70 649.00,388.01 648.99,396.50 C648.99,410.83 647.93,424.08 646.85,423.41 C646.38,423.12 646.00,423.37 646.00,423.96 C646.00,425.38 630.54,433.03 625.75,433.99 C622.38,434.66 621.99,434.52 621.90,432.62 C621.81,430.75 621.71,430.80 621.09,433.00 C620.54,434.93 620.22,434.04 619.69,429.10 ZM 676.75 388.00 C676.34,378.38 676.00,360.33 676.00,347.90 C676.00,326.10 676.08,325.18 678.25,321.99 C681.85,316.70 685.33,314.66 690.90,314.57 C696.26,314.49 699.68,316.35 703.42,321.37 C705.13,323.65 705.54,325.96 705.85,335.22 C706.36,350.09 704.78,389.20 703.94,382.50 C703.59,379.73 703.24,378.75 703.16,380.31 C703.07,381.85 702.58,382.86 702.06,382.54 C701.55,382.22 700.76,382.59 700.31,383.35 C699.87,384.12 695.61,386.85 690.86,389.41 C684.31,392.94 681.91,394.80 680.96,397.10 C680.09,399.19 679.46,399.74 678.92,398.87 C678.45,398.11 678.02,399.16 677.82,401.56 C677.64,403.73 677.16,397.62 676.75,388.00 ZM 734.59 356.00 C734.19,350.77 734.01,329.55 734.18,308.83 L 734.50 271.16 L 737.00 268.48 C740.69,264.54 744.30,263.00 749.87,263.00 C753.78,263.00 755.51,263.56 757.96,265.62 C763.85,270.58 764.01,271.49 763.86,298.70 C763.71,325.01 762.54,360.25 762.11,351.00 C761.92,346.90 761.64,346.01 761.00,347.50 C760.53,348.60 760.09,349.05 760.04,348.50 C759.98,347.95 759.36,348.26 758.65,349.19 C757.05,351.29 740.92,361.99 739.33,361.99 C738.69,362.00 737.94,362.56 737.66,363.25 C737.38,363.95 737.08,363.62 736.98,362.50 C736.83,360.81 736.68,360.89 736.06,363.00 C735.54,364.74 735.09,362.62 734.59,356.00 Z" fill="rgba(223,144,243,1)"/>
</g>
</svg>