<?xml version="1.0" encoding="UTF-8"?>
<svg version="1.1" xmlns="http://www.w3.org/2000/svg" width="1024" height="1024">
<path d="M0 0 C9.97436689 9.40282276 16.04814283 21.71243551 21.97216797 33.87817383 C24.74163753 39.55824371 27.64749411 45.15669913 30.6015625 50.7421875 C36.34435274 61.60571215 41.9252308 72.5495605 47.5 83.5 C49.61898546 87.65796337 51.73899778 91.81540246 53.859375 95.97265625 C54.38267395 96.99879532 54.9059729 98.02493439 55.44512939 99.08216858 C60.18900304 108.37989934 64.96614771 117.66029584 69.75 126.9375 C75.22687139 137.55931117 80.63194572 148.21237823 85.94824219 158.91577148 C89.2718951 165.59156909 92.71215403 172.19693383 96.21289062 178.78125 C99.57859994 185.1369116 102.80004937 191.55952884 106 198 C109.45970636 204.96294473 112.96353283 211.89101869 116.625 218.75 C121.59687007 228.07642742 126.2899632 237.53970344 131 247 C135.9541122 256.95040308 140.91934013 266.88228635 146.1640625 276.68359375 C150.82887208 285.45976092 155.20612191 294.38247426 159.634552 303.27935791 C163.67650517 311.39652505 167.72383502 319.50282128 172 327.5 C177.4140254 337.62517733 182.48875794 347.92179583 187.5859375 358.20898438 C191.12343358 365.33476125 194.72964801 372.41324224 198.46484375 379.4375 C205.47899134 392.65943073 212.11370913 406.07648157 218.79858398 419.46679688 C220.70559985 423.28661056 222.61629594 427.10457033 224.5279932 430.92204285 C226.01095512 433.88436269 227.49202021 436.84762762 228.97250175 439.81118774 C229.67722347 441.22129651 230.38253573 442.63111032 231.08845711 444.0406189 C232.06619772 445.99356714 233.04137496 447.94777402 234.01586914 449.90234375 C234.56972794 451.01085693 235.12358673 452.11937012 235.69422913 453.26147461 C237.89551037 457.87810735 238.94607763 461.93231463 238 467 C230.62127467 484.31262762 213.77959782 504.8418839 198 515 C193.07882763 516.64039079 188.54108487 517.02823335 183.64453125 515.046875 C168.70270991 506.56440546 156.57778162 493.25973689 146 480 C145.37609375 479.24332031 144.7521875 478.48664063 144.109375 477.70703125 C133.36100193 464.58769353 123.9512458 450.68089229 115.28222656 436.12451172 C113.69550602 433.49548617 112.04597278 430.91026424 110.39086914 428.32397461 C103.78165638 417.96297096 97.86040109 407.22101206 91.91796875 396.46826172 C90.27963067 393.50565597 88.63596724 390.54614117 86.9894104 387.58810425 C79.92123172 374.88609368 72.95797851 362.14335455 66.28540039 349.22753906 C63.05046144 342.9751085 59.71279968 336.78883055 56.3125 330.625 C50.4368293 319.95234119 44.86295934 309.13035121 39.3137207 298.28564453 C35.61650845 291.0630842 31.88367898 283.86191644 28.09375 276.6875 C23.44450557 267.88293889 18.9038163 259.02555654 14.38293457 250.15457153 C8.06520506 237.76418892 1.74867391 225.38451922 -5.04638672 213.24682617 C-8.07495081 207.81468672 -10.88277547 202.28510526 -13.64883423 196.71614075 C-16.49929951 190.9827357 -19.40060224 185.27655251 -22.3203125 179.578125 C-22.7864949 178.66799149 -23.25267731 177.75785797 -23.73298645 176.82014465 C-24.69980408 174.93313157 -25.66679192 173.04620568 -26.63394165 171.15936279 C-34.33210902 156.13864832 -41.9843646 141.09881401 -49.49780273 125.98486328 C-52.84391205 119.26819446 -56.28912606 112.61660337 -59.82348633 105.99755859 C-64.99125942 96.24138237 -69.8512178 86.32696961 -74.77236938 76.44500732 C-79.57680351 66.80087633 -84.40482179 57.18030488 -89.48291016 47.67651367 C-94.7323105 37.81571702 -99.66051627 27.78684233 -104.61425781 17.77514648 C-105.47906139 16.0432539 -106.35653761 14.31756257 -107.25292969 12.60180664 C-109.89697644 7.52464931 -110.74110146 4.65089861 -110 -1 C-107.57050809 -5.85898381 -103.76765789 -7.32780006 -98.8828125 -9.09375 C-69.21107832 -18.42144963 -25.15655334 -21.38956515 0 0 Z " fill="#AA56F8" transform="translate(338,280)"/>
<path d="M0 0 C4.47314621 2.31940915 6.8687264 4.45718957 9 9 C9.46084069 11.96118217 9.48468256 14.8960242 9.5058136 17.88896179 C9.52334997 18.77331787 9.54088634 19.65767395 9.55895412 20.5688287 C9.61287093 23.49856334 9.64532035 26.42810104 9.67700195 29.3581543 C9.70945541 31.43395477 9.7428211 33.50974117 9.77705097 35.58551311 C9.87687412 42.05681582 9.94388136 48.52818441 10 55 C10.00865066 55.99328072 10.01730132 56.98656144 10.02621412 58.00994158 C10.13943132 71.72247721 10.16548931 85.43482226 10.16725707 99.14776826 C10.16798248 102.32976778 10.17014302 105.51176332 10.17275429 108.69376183 C10.18188116 119.84361408 10.18610269 130.99345467 10.18530273 142.14331055 C10.18469522 152.47557384 10.19540937 162.80778608 10.2110464 173.1400364 C10.22411843 182.10154233 10.22948725 191.06303142 10.22884732 200.0245468 C10.2285936 205.3399948 10.23137962 210.65539641 10.24202538 215.97083473 C10.25170848 220.93473311 10.25178421 225.89854041 10.24450874 230.86244202 C10.24346541 232.67605409 10.24581082 234.4896719 10.2518692 236.30327415 C10.31982183 258.0531993 10.31982183 258.0531993 5.6875 263.9375 C0.71127235 267.7564654 -3.74089535 268.77622754 -10 268 C-15.26343082 266.14231853 -17.83422673 263.43208258 -21 259 C-21.91259997 256.20430319 -22.12706541 253.66498324 -22.13422108 250.73513412 C-22.14090784 249.46089053 -22.14090784 249.46089053 -22.14772969 248.16090465 C-22.14754533 247.23251253 -22.14736097 246.30412042 -22.14717102 245.34759521 C-22.15084771 244.35751882 -22.1545244 243.36744242 -22.1583125 242.34736371 C-22.16935069 239.02030757 -22.1731934 235.69328265 -22.17700195 232.36621094 C-22.18326643 229.98454184 -22.18991322 227.60287371 -22.19691467 225.22120667 C-22.21614016 218.06816228 -22.22674191 210.91511732 -22.23564246 203.76205432 C-22.24002825 200.39195913 -22.24539425 197.0218655 -22.25063133 193.65177155 C-22.26764035 182.44657594 -22.28213456 171.2413813 -22.28938007 160.03617477 C-22.2912899 157.12974801 -22.29321024 154.22332126 -22.29516602 151.31689453 C-22.29564976 150.59453563 -22.2961335 149.87217673 -22.2966319 149.12792817 C-22.30493245 137.42589189 -22.3302712 125.72395783 -22.36274669 114.02196619 C-22.39582955 102.00298698 -22.41382988 89.9840597 -22.41702431 77.96503472 C-22.41918812 71.21868819 -22.42791784 64.47249078 -22.45348549 57.72618866 C-22.47673821 51.37979305 -22.4810105 45.03366584 -22.47072411 38.68723869 C-22.47022798 36.35882869 -22.47657086 34.0304056 -22.49028015 31.7020359 C-22.5079602 28.52114814 -22.50091133 25.34122769 -22.48774719 22.16033936 C-22.49871644 21.24087013 -22.50968568 20.3214009 -22.52098733 19.37406898 C-22.46236474 13.4992566 -21.44628639 8.85799354 -18 4 C-11.93947604 -0.82368234 -7.3862735 -1.628768 0 0 Z " fill="#A854F7" transform="translate(640,374)"/>
<path d="M0 0 C3.37553591 2.98303173 6.23389625 5.83548196 7.05538273 10.4346056 C7.20294799 12.90655619 7.22062223 15.34952101 7.19543457 17.82580566 C7.20479451 19.24209629 7.20479451 19.24209629 7.21434355 20.68699884 C7.23028257 23.84692605 7.21766543 27.00608286 7.20507812 30.16601562 C7.21049882 32.43300323 7.21762118 34.69998732 7.22631836 36.96696472 C7.2445607 43.12186246 7.23748024 49.27649213 7.22480202 55.43139458 C7.21467917 61.87081503 7.22406571 68.31021244 7.23034668 74.74963379 C7.23809144 86.25656664 7.22565615 97.76336236 7.20530933 109.27027375 C7.18743872 119.69961142 7.19054296 130.128771 7.20898438 140.55810547 C7.23039934 152.67473554 7.23835382 164.79122586 7.22653532 176.9078784 C7.22029726 183.31988012 7.21947348 189.7317592 7.23268127 196.14375305 C7.24423062 202.17175326 7.23623032 208.19941693 7.21310425 214.22738075 C7.20781233 216.44051365 7.20933914 218.65367483 7.21815491 220.86679649 C7.2290745 223.88631228 7.21538941 226.90474753 7.19543457 229.92419434 C7.2088189 231.24005327 7.2088189 231.24005327 7.22247362 232.58249521 C7.15297291 237.99884249 6.27995281 241.07365108 2.6875 245.375 C-1.50239364 249.07769671 -4.7068108 249.96386973 -10.13671875 249.69921875 C-15.23902051 248.93891166 -19.18034618 246.40205491 -22.3125 242.375 C-24.25733777 236.91027588 -24.5976592 232.05370861 -24.56646729 226.28642273 C-24.56958727 225.39319945 -24.57270725 224.49997616 -24.57592177 223.57968551 C-24.58387426 220.59822179 -24.57758876 217.61696315 -24.57128906 214.63549805 C-24.5740002 212.49308147 -24.57756182 210.35066583 -24.58190918 208.20825195 C-24.59102245 202.39617365 -24.58749283 196.5841664 -24.58115101 190.77208686 C-24.57608359 184.68422236 -24.58078471 178.59636389 -24.58392334 172.50849915 C-24.58756164 162.28210357 -24.58276829 152.05573689 -24.57324219 141.8293457 C-24.56236664 130.01817686 -24.56587724 118.20707712 -24.576895 106.39590997 C-24.58598214 96.24707057 -24.5872459 86.09825193 -24.58201766 75.94940978 C-24.57890469 69.89167862 -24.57846995 63.8339799 -24.58509064 57.77625084 C-24.59088389 52.07744757 -24.58683095 46.378733 -24.57530212 40.67993927 C-24.57266575 38.59264841 -24.57340309 36.50535004 -24.57782745 34.41806221 C-24.58332505 31.560118 -24.57639784 28.70245471 -24.56646729 25.8445282 C-24.57092873 25.02631377 -24.57539017 24.20809935 -24.57998681 23.36509055 C-24.53375002 16.463853 -24.37798539 8.52198779 -20 2.875 C-14.26105317 -2.4635552 -7.06275638 -3.46474841 0 0 Z " fill="#B962FB" transform="translate(699.3125,315.625)"/>
<path d="M0 0 C3.57739648 1.99787775 5.33873876 4.83447977 7.3125 8.375 C7.87249642 11.30437543 7.85332823 14.16675602 7.82043457 17.14245605 C7.82979451 18.44849077 7.82979451 18.44849077 7.83934355 19.78091002 C7.85527066 22.69210787 7.84267036 25.60246812 7.83007812 28.51367188 C7.83549936 30.60332222 7.84262203 32.69296875 7.85131836 34.78260803 C7.86955432 40.45405764 7.86248291 46.12521621 7.84980202 51.79667091 C7.83967585 57.73160207 7.84906664 63.66650829 7.85534668 69.60144043 C7.86262418 79.56816075 7.85303261 89.53476252 7.83398438 99.50146484 C7.81221552 111.02477059 7.81926682 122.54779324 7.84129 134.07109213 C7.85944099 143.96424327 7.86200376 153.85730918 7.85153532 163.75047159 C7.84529878 169.65945482 7.8444693 175.56830498 7.85768127 181.47727966 C7.86923467 187.03252351 7.86122303 192.58740232 7.83810425 198.14260674 C7.83281448 200.18158296 7.83433549 202.2205899 7.84315491 204.25955391 C7.85408321 207.0426322 7.84037949 209.82454025 7.82043457 212.60754395 C7.8338189 213.81834728 7.8338189 213.81834728 7.84747362 215.05361128 C7.7748643 220.27576142 6.73415377 223.21277912 3.3125 227.375 C-0.55481102 230.49033388 -4.76332029 231.52916401 -9.6875 231.375 C-14.59827419 230.29659042 -18.63202031 228.48814574 -21.6875 224.375 C-23.71146798 219.5197815 -23.97322655 215.02895275 -23.94819641 209.84205627 C-23.95202196 208.99657335 -23.95584751 208.15109042 -23.95978898 207.2799868 C-23.97008641 204.45425365 -23.96613303 201.62872494 -23.9621582 198.80297852 C-23.96650646 196.77406629 -23.97168999 194.7451557 -23.97764587 192.71624756 C-23.99103438 187.21009159 -23.99161474 181.70400428 -23.98908257 176.19783521 C-23.98801284 171.60033107 -23.99289626 167.00284082 -23.997688 162.40533966 C-24.00878251 151.55919699 -24.00922079 140.71308896 -24.00317383 129.86694336 C-23.99713214 118.67884708 -24.00945017 107.4908765 -24.0307439 96.30280167 C-24.04835739 86.69499935 -24.05436168 77.08723705 -24.05110615 67.47941917 C-24.04929288 61.74200297 -24.05193409 56.00467644 -24.06582069 50.26727486 C-24.07839037 44.87214763 -24.07646298 39.47721648 -24.06340981 34.08209229 C-24.06104267 32.10319388 -24.0637836 30.12428172 -24.07203293 28.14539909 C-24.08249034 25.44168095 -24.07440779 22.73862191 -24.0617218 20.03492737 C-24.06909609 19.25398368 -24.07647037 18.47303999 -24.08406812 17.66843134 C-24.0333656 12.52327962 -23.08380398 8.95111909 -20.6875 4.375 C-14.87527547 -1.28427125 -7.60583837 -3.90878203 0 0 Z " fill="#C770FD" transform="translate(756.6875,263.625)"/>
<path d="M0 0 C3.21989899 2.65991655 5.53909521 5.09094287 7 9 C7.20130196 11.87503678 7.29375101 14.65356306 7.29052734 17.52880859 C7.30060318 18.81732979 7.30060318 18.81732979 7.31088257 20.13188171 C7.32987586 22.97079253 7.33378743 25.8094671 7.3359375 28.6484375 C7.34236448 30.62374977 7.34909277 32.59906108 7.35610962 34.57437134 C7.3680857 38.71529345 7.3717901 42.85613211 7.37060547 46.99707031 C7.37040226 52.29892893 7.39770521 57.60025164 7.43214989 62.90198326 C7.45440531 66.9821111 7.45844342 71.0621097 7.45738602 75.14229202 C7.45974399 77.09669466 7.46857854 79.05110076 7.48405075 81.00544357 C7.50368324 83.74147645 7.49788358 86.47635014 7.48583984 89.21240234 C7.49707886 90.01676224 7.50831787 90.82112213 7.51989746 91.64985657 C7.46137936 96.89080979 6.42418188 99.81623883 3 104 C-0.24889233 106.8550872 -2.84296852 107.88656554 -7.1875 108.3125 C-11.75512413 107.93810458 -15.42547741 106.94068972 -19 104 C-22.71616174 98.56876406 -23.5843994 94.72776244 -23.51757812 88.22241211 C-23.5245874 87.37271347 -23.53159668 86.52301483 -23.53881836 85.64756775 C-23.5563301 82.85715424 -23.54480115 80.06776639 -23.53125 77.27734375 C-23.53394663 75.32873847 -23.53783047 73.3801345 -23.54284668 71.43153381 C-23.54873227 67.35551085 -23.5402081 63.27983941 -23.52148438 59.20385742 C-23.49868028 53.98609706 -23.51183319 48.7691591 -23.53577423 43.55142879 C-23.55024463 39.53045989 -23.54562077 35.50968523 -23.53526306 31.4887104 C-23.5326 29.56502751 -23.53585071 27.64132683 -23.54518127 25.71766472 C-23.55536903 23.02736713 -23.5398158 20.33839268 -23.51757812 17.64819336 C-23.52567505 16.85789734 -23.53377197 16.06760132 -23.54211426 15.25335693 C-23.4625714 10.04482639 -22.33858312 7.19222869 -19 3 C-18.5875 2.4225 -18.175 1.845 -17.75 1.25 C-12.30342063 -2.64041383 -5.91322982 -2.69704058 0 0 Z " fill="#B45DFD" transform="translate(585,436)"/>
<path d="M0 0 C3.39080125 2.88819814 5.59128498 5.77385493 7 10 C7.1335589 13.00111458 7.21237964 15.97812413 7.23828125 18.98046875 C7.246353 19.86728836 7.25442474 20.75410797 7.26274109 21.6678009 C7.27657181 23.54649914 7.28729849 25.4252224 7.29516602 27.30395508 C7.31233175 30.15951049 7.35622078 33.01389356 7.40039062 35.86914062 C7.41052233 37.69790819 7.41903694 39.52668556 7.42578125 41.35546875 C7.44328934 42.20159225 7.46079742 43.04771576 7.47883606 43.91947937 C7.45803797 49.68183989 6.38287838 54.24473297 3 59 C-0.91828549 62.3725291 -4.84695399 63.67142774 -10.01171875 63.390625 C-14.42672128 62.52323747 -17.79887691 60.28119796 -20.875 57 C-22.73965715 53.68505395 -23.12548341 50.54921222 -23.17700195 46.78564453 C-23.18983719 45.96444122 -23.20267242 45.14323792 -23.21589661 44.29714966 C-23.22328354 43.4179184 -23.23067047 42.53868713 -23.23828125 41.6328125 C-23.246353 40.72046844 -23.25442474 39.80812439 -23.26274109 38.86813354 C-23.27655377 36.93994024 -23.28728848 35.01172278 -23.29516602 33.08349609 C-23.30670145 31.11467308 -23.32717785 29.14588171 -23.35668945 27.17724609 C-23.39938385 24.32888589 -23.41553615 21.48145303 -23.42578125 18.6328125 C-23.44328934 17.7576297 -23.46079742 16.8824469 -23.47883606 15.98074341 C-23.45933351 10.46437577 -22.61759175 7.4129549 -19 3 C-18.566875 2.4225 -18.13375 1.845 -17.6875 1.25 C-12.26413283 -2.76730902 -5.9394121 -2.67327441 0 0 Z " fill="#A04DFA" transform="translate(813,375)"/>
<path d="M0 0 C3.29353116 3.81040573 5.58278147 7.80749605 7.75219727 12.3190918 C8.45642363 13.75542365 9.16086675 15.19164924 9.86550903 16.6277771 C10.22058155 17.35654934 10.57565407 18.08532158 10.94148636 18.83617783 C12.57677414 22.17904637 14.24965172 25.50276838 15.92163086 28.82739258 C16.58531574 30.15100896 17.24880082 31.47472555 17.91209412 32.79853821 C18.24692747 33.46658289 18.58176083 34.13462757 18.92674065 34.82291603 C21.1232915 39.20630354 23.31824863 43.59048936 25.51323605 47.97465992 C27.42941306 51.80174501 29.34636055 55.62844058 31.26489258 59.4543457 C33.14321473 63.20014924 35.0195973 66.94691838 36.89462471 70.69437218 C37.60481622 72.11291106 38.31571043 73.53109837 39.02732658 74.94892311 C40.01478328 76.91660507 40.99975183 78.88551332 41.98413086 80.85473633 C42.54402206 81.97229813 43.10391327 83.08985992 43.68077087 84.24128723 C45.89148574 88.864235 46.94796781 92.92218983 46 98 C38.62127467 115.31262762 21.77959782 135.8418839 6 146 C1.07882763 147.64039079 -3.45891513 148.02823335 -8.35546875 146.046875 C-23.29729009 137.56440546 -35.42221838 124.25973689 -46 111 C-46.93585938 109.86498047 -46.93585938 109.86498047 -47.890625 108.70703125 C-58.63899807 95.58769353 -68.0487542 81.68089229 -76.71777344 67.12451172 C-78.30583534 64.49326368 -79.95684504 61.90590162 -81.61328125 59.31738281 C-86.55824831 51.56570399 -91.15499505 43.62390488 -95.6875 35.625 C-96.32469971 34.51181396 -96.96189941 33.39862793 -97.6184082 32.25170898 C-98.20195068 31.21216064 -98.78549316 30.1726123 -99.38671875 29.1015625 C-99.91483154 28.16650879 -100.44294434 27.23145508 -100.98706055 26.26806641 C-101.32133057 25.51960449 -101.65560059 24.77114258 -102 24 C-101.67 23.34 -101.34 22.68 -101 22 C-99.99466333 23.62170379 -98.99588093 25.24747237 -98 26.875 C-97.443125 27.77992188 -96.88625 28.68484375 -96.3125 29.6171875 C-95 32 -95 32 -95 34 C-94.01 34.33 -93.02 34.66 -92 35 C-91.67 36.98 -91.34 38.96 -91 41 C-90.34 41 -89.68 41 -89 41 C-88.32845067 42.28913487 -87.66291141 43.58140204 -87 44.875 C-86.62875 45.59429688 -86.2575 46.31359375 -85.875 47.0546875 C-85 49 -85 49 -85 51 C-83.515 51.495 -83.515 51.495 -82 52 C-80.6484375 53.9609375 -80.6484375 53.9609375 -79.375 56.375 C-78.94960938 57.16648437 -78.52421875 57.95796875 -78.0859375 58.7734375 C-77 61 -77 61 -76 64 C-75.34 64.33 -74.68 64.66 -74 65 C-73.375 67.0625 -73.375 67.0625 -73 69 C-72.34 69 -71.68 69 -71 69 C-71 69.66 -71 70.32 -71 71 C-70.34 71.33 -69.68 71.66 -69 72 C-68.33333333 73.66666667 -67.66666667 75.33333333 -67 77 C-65.67594012 79.00615134 -64.34331654 81.00669158 -63 83 C-62.67 83.99 -62.34 84.98 -62 86 C-61.2575 86.721875 -60.515 87.44375 -59.75 88.1875 C-55.50181555 92.53223409 -52.65279979 97.56115476 -50 103 C-49.34 103 -48.68 103 -48 103 C-47.443125 104.0725 -46.88625 105.145 -46.3125 106.25 C-44.33910292 109.70689489 -42.17289249 111.56498949 -39 114 C-37.8326508 115.29340099 -36.68858864 116.60802091 -35.5625 117.9375 C-33.43183923 120.44171818 -31.50699106 122.40245628 -28.9375 124.5 C-25.82722724 127.14704065 -23.76695974 129.86971768 -21.4921875 133.23046875 C-19.80442333 135.23192731 -18.36269381 135.92563442 -16 137 C-14.88227171 137.83634215 -13.77783794 138.69075009 -12.6875 139.5625 C-9.22868097 142.1173944 -6.286112 142.5713888 -2 143 C-1.67 143.66 -1.34 144.32 -1 145 C0.65 145 2.3 145 4 145 C4 144.34 4 143.68 4 143 C5.79296875 141.484375 5.79296875 141.484375 8.1875 139.75 C12.12364126 136.7824703 14.98559824 133.8756594 18 130 C18.763125 129.2575 19.52625 128.515 20.3125 127.75 C22.23137852 126.16523212 22.23137852 126.16523212 22 124 C22.845625 123.525625 23.69125 123.05125 24.5625 122.5625 C28.73246471 119.93296931 30.76458111 116.03384978 33.26171875 111.88671875 C35.29004891 108.51832327 37.49747224 105.29953315 39.73828125 102.0703125 C42.02127196 98.32422867 43.27436026 95.0936276 43.125 90.6875 C43.08375 89.470625 43.0425 88.25375 43 87 C42.34 87 41.68 87 41 87 C40.60167969 86.03578125 40.20335937 85.0715625 39.79296875 84.078125 C39.25810566 82.80196043 38.72293304 81.52592555 38.1875 80.25 C37.92646484 79.61578125 37.66542969 78.9815625 37.39648438 78.328125 C35.92750718 74.84610499 34.34670129 71.94940599 32 69 C31.27823566 67.68489914 30.58931748 66.35113582 29.9375 65 C29.45603516 64.01 29.45603516 64.01 28.96484375 63 C28.64644531 62.34 28.32804688 61.68 28 61 C27.44505859 60.01 27.44505859 60.01 26.87890625 59 C26 57 26 57 26 53 C25.34 53 24.68 53 24 53 C23.23816406 51.47632813 23.23816406 51.47632813 22.4609375 49.921875 C21.9649707 48.93018311 21.9649707 48.93018311 21.45898438 47.91845703 C20.73320362 46.46656859 20.00794757 45.01441774 19.28320312 43.56201172 C17.57838254 40.14709013 15.86909822 36.73498543 14.1328125 33.3359375 C13.59398437 32.27632812 13.05515625 31.21671875 12.5 30.125 C12.0153125 29.17882812 11.530625 28.23265625 11.03125 27.2578125 C10 25 10 25 10 23 C9.34 22.67 8.68 22.34 8 22 C7.30539173 20.14965696 6.69335204 18.26794109 6.125 16.375 C4.94709374 12.65086782 3.77747158 9.28067122 1.75 5.9375 C0 3 0 3 0 0 Z " fill="#5619B5" transform="translate(530,649)"/>
<path d="M0 0 C1.96526519 3.29704291 2.25105546 5.77010733 2.25396729 9.58354187 C2.25960693 10.72035904 2.26524658 11.85717621 2.27105713 13.02844238 C2.26700867 14.27162231 2.26296021 15.51480225 2.25878906 16.7956543 C2.2622937 18.10826736 2.26579834 19.42088043 2.26940918 20.77326965 C2.2785279 24.37273339 2.27498991 27.97208248 2.26865101 31.57154822 C2.26358305 35.34431753 2.26828517 39.1170771 2.27142334 42.8898468 C2.2750629 49.23086301 2.2702665 55.57183266 2.26074219 61.9128418 C2.2498811 69.2279678 2.25336613 76.54298211 2.264395 83.85810536 C2.27349624 90.14788091 2.27473861 96.43762298 2.26951766 102.72740299 C2.2664105 106.47963558 2.26595349 110.23181586 2.27259064 113.98404503 C2.27840398 117.51761864 2.27429489 121.05104973 2.26280212 124.58460808 C2.25893078 126.48770837 2.26480876 128.39082082 2.27105713 130.29391479 C2.19304534 146.2142397 2.19304534 146.2142397 -2.3125 151.9375 C-7.28872765 155.7564654 -11.74089535 156.77622754 -18 156 C-23.26343082 154.14231853 -25.83422673 151.43208258 -29 147 C-29.91656042 144.19720752 -30.12394499 141.66021174 -30.12025452 138.72259521 C-30.12162918 137.87568115 -30.12300385 137.02876709 -30.12442017 136.15618896 C-30.12082489 135.23549622 -30.11722961 134.31480347 -30.11352539 133.36621094 C-30.11367142 132.39026978 -30.11381744 131.41432861 -30.1139679 130.40881348 C-30.1132714 127.18397802 -30.10549126 123.95920037 -30.09765625 120.734375 C-30.09579114 118.49806754 -30.09436767 116.26175967 -30.09336853 114.02545166 C-30.08955071 108.14000317 -30.07972666 102.25457936 -30.06866455 96.36914062 C-30.05843466 90.36328465 -30.05386752 84.35742468 -30.04882812 78.3515625 C-30.03810376 66.56769749 -30.02103612 54.7838508 -30 43 C-29.01 42.505 -29.01 42.505 -28 42 C-28 47.94 -28 53.88 -28 60 C-27.34 60.33 -26.68 60.66 -26 61 C-26.01160156 61.75925781 -26.02320313 62.51851562 -26.03515625 63.30078125 C-26.04417969 64.29464844 -26.05320312 65.28851562 -26.0625 66.3125 C-26.07410156 67.29863281 -26.08570313 68.28476562 -26.09765625 69.30078125 C-26.12329862 72.09963849 -26.12329862 72.09963849 -25 75 C-25.14308594 75.81984375 -25.28617188 76.6396875 -25.43359375 77.484375 C-26.22833387 82.4172447 -26.10227084 87.26242823 -26.0625 92.25 C-26.05871338 93.34030518 -26.05492676 94.43061035 -26.05102539 95.55395508 C-26.03477712 100.19731355 -26.00682488 104.84058228 -25.97949219 109.48388672 C-25.84414462 134.64784895 -25.84414462 134.64784895 -27 146 C-26.01 146 -25.02 146 -24 146 C-24 147.32 -24 148.64 -24 150 C-19.20127899 152.23940314 -14.17144153 153.0560864 -9 154 C-9 153.34 -9 152.68 -9 152 C-8.21625 151.79375 -7.4325 151.5875 -6.625 151.375 C-3.6982822 150.20145792 -3.6982822 150.20145792 -2.75 146.9375 C-2.5025 145.968125 -2.255 144.99875 -2 144 C-1.67 143.67 -1.34 143.34 -1 143 C-0.92755947 140.98035801 -0.91622812 138.95832876 -0.9375 136.9375 C-0.94652344 135.83277344 -0.95554687 134.72804688 -0.96484375 133.58984375 C-0.97644531 132.73519531 -0.98804688 131.88054687 -1 131 C-1.33 131 -1.66 131 -2 131 C-2.12625251 124.56112224 -2.12625251 124.56112224 -1.4375 121.5 C-0.98086168 118.89063818 -1.29201276 116.89811899 -1.7421875 114.3125 C-2.3440662 108.91383045 -2.06771541 103.42475652 -2 98 C-1.34 98 -0.68 98 0 98 C-0.33902344 97.28972656 -0.67804687 96.57945312 -1.02734375 95.84765625 C-2.1154364 92.66203559 -2.00902702 90.747324 -1.5625 87.4375 C-1.02750118 83.64765997 -1.02750118 83.64765997 -1.52734375 79.91015625 C-2 78 -2 78 -1.54237366 76.33355713 C-0.79546351 73.11998383 -0.83394771 70.05160796 -0.79467773 66.75292969 C-0.77982834 65.6694072 -0.77982834 65.6694072 -0.76467896 64.56399536 C-0.73316516 62.18332158 -0.7083467 59.80262787 -0.68359375 57.421875 C-0.66301547 55.76848846 -0.64201877 54.11510709 -0.62062073 52.46173096 C-0.56549026 48.11511417 -0.51604127 43.76845062 -0.46777344 39.42175293 C-0.41749243 34.9842514 -0.36184084 30.54681758 -0.30664062 26.109375 C-0.19916947 17.4063073 -0.09770009 8.70318285 0 0 Z " fill="#6923CD" transform="translate(648,486)"/>
<path d="M0 0 C0.33 0 0.66 0 1 0 C1.09347956 17.10699942 1.16399686 34.21391903 1.20724869 51.32111549 C1.22786589 59.26445687 1.25597023 67.20763945 1.30175781 75.15087891 C1.34165155 82.07496001 1.36743894 88.99892611 1.37635398 95.92311895 C1.3815645 99.58881009 1.39379306 103.25417224 1.42292023 106.91975784 C1.45518806 111.01387316 1.4559578 115.10741807 1.45410156 119.20166016 C1.47567322 121.0207489 1.47567322 121.0207489 1.49768066 122.87658691 C1.46651154 129.21916028 1.35062429 133.22449018 -3 138 C-7.18989364 141.70269671 -10.3943108 142.58886973 -15.82421875 142.32421875 C-20.92652051 141.56391166 -24.86784618 139.02705491 -28 135 C-29.87726467 129.67375856 -30.28242043 125.01816733 -30.23046875 119.45703125 C-30.23037308 118.63086304 -30.2302774 117.80469482 -30.23017883 116.95349121 C-30.22644727 114.23968235 -30.20744935 111.52623441 -30.1875 108.8125 C-30.18060786 106.91886528 -30.17410362 105.02522912 -30.16796875 103.1315918 C-30.07370029 82.41626085 -29.56628383 61.70701181 -29 41 C-28.67 41 -28.34 41 -28 41 C-28 46.94 -28 52.88 -28 59 C-27.34 59.33 -26.68 59.66 -26 60 C-26.00666183 60.86364166 -26.01332367 61.72728333 -26.02018738 62.61709595 C-26.08037273 70.7679408 -26.12601213 78.9187107 -26.15543652 87.06972694 C-26.17107261 91.2599602 -26.19227306 95.45000939 -26.22631836 99.64013672 C-26.25898553 103.68610817 -26.27686848 107.73190288 -26.28463173 111.77799606 C-26.29016207 113.31932735 -26.30096154 114.86064929 -26.31719017 116.40190506 C-26.33906293 118.56583585 -26.34196292 120.72904233 -26.34057617 122.89306641 C-26.34723801 124.12328522 -26.35389984 125.35350403 -26.36076355 126.6210022 C-25.958366 130.38995403 -24.97548871 132.78261896 -23 136 C-20.56789044 137.75455028 -20.56789044 137.75455028 -17.8125 138.875 C-16.91144531 139.28492188 -16.01039063 139.69484375 -15.08203125 140.1171875 C-14.05142578 140.55417969 -14.05142578 140.55417969 -13 141 C-13 140.34 -13 139.68 -13 139 C-12.44570313 138.82984375 -11.89140625 138.6596875 -11.3203125 138.484375 C-6.74877023 137.09174014 -6.74877023 137.09174014 -3.5 133.8125 C-3.335 133.214375 -3.17 132.61625 -3 132 C-2.34 132 -1.68 132 -1 132 C-1.16265854 131.00717514 -1.32531708 130.01435028 -1.49290466 128.99143982 C-2.05453815 125.03855277 -2.13415665 121.12425805 -2.11352539 117.13696289 C-2.11367142 116.38491577 -2.11381744 115.63286865 -2.1139679 114.85803223 C-2.11327662 112.39620989 -2.10552131 109.93446521 -2.09765625 107.47265625 C-2.09578928 105.7563023 -2.09436669 104.03994781 -2.09336853 102.32359314 C-2.08956533 97.82407133 -2.07975398 93.32458221 -2.06866455 88.82507324 C-2.05840302 84.22648562 -2.05386078 79.62789267 -2.04882812 75.02929688 C-2.03812959 66.01951695 -2.02107977 57.0097612 -2 48 C-1.67 48 -1.34 48 -1 48 C-0.67 32.16 -0.34 16.32 0 0 Z " fill="#6E26D1" transform="translate(705,423)"/>
<path d="M0 0 C4.47231774 2.31897957 6.91455448 4.43186354 9 9 C9.47863263 12.41937501 9.51247816 15.82048402 9.546875 19.26953125 C9.56719788 20.26450119 9.58752075 21.25947113 9.60845947 22.28459167 C9.64860674 24.38663037 9.68179368 26.48881198 9.70849609 28.59106445 C9.74972302 31.79100182 9.81240902 34.98995118 9.87890625 38.18945312 C9.91532947 40.23695702 9.95052559 42.28448319 9.984375 44.33203125 C10.0019989 45.28124954 10.0196228 46.23046783 10.03778076 47.20845032 C10.09965105 52.5808434 9.79877073 57.68537196 9 63 C8.67 63 8.34 63 8 63 C7.21360989 44.65159456 6.85672069 26.36620266 7 8 C5.68 7.34 4.36 6.68 3 6 C3 5.01 3 4.02 3 3 C-6.20697502 1.65354961 -6.20697502 1.65354961 -14.60791016 5.07836914 C-17.24364333 7.40655 -17.9421475 8.69701731 -18.60955811 12.19235229 C-18.79629241 16.37367199 -18.75991431 20.50193305 -18.6484375 24.68359375 C-18.63278643 26.25982317 -18.62045222 27.8360886 -18.61123657 29.41236877 C-18.57885383 33.57861641 -18.50555539 37.74312554 -18.42236328 41.90863037 C-18.29960774 48.46292198 -18.24444766 55.0184089 -18.17539215 61.57344437 C-18.14851836 63.98882589 -18.11676838 66.4041106 -18.08465576 68.81942749 C-17.90223246 83.8989821 -18.34078691 98.93555043 -19 114 C-19.33 114 -19.66 114 -20 114 C-21.61345223 90.37751449 -22.26350327 66.76646503 -22.36334229 43.09403229 C-22.37497694 41.0041413 -22.39438742 38.91445565 -22.41601562 36.824646 C-22.45573309 32.862207 -22.4603349 28.90014762 -22.4609375 24.9375 C-22.47522797 23.74939728 -22.48951843 22.56129456 -22.50424194 21.33718872 C-22.46650602 14.42175292 -21.78466877 9.85175247 -18 4 C-11.93947604 -0.82368234 -7.3862735 -1.628768 0 0 Z " fill="#E88FFB" transform="translate(640,374)"/>
<path d="M0 0 C0.99 0 1.98 0 3 0 C3.52319824 1.0516333 4.04639648 2.1032666 4.58544922 3.18676758 C16.34801963 26.95129021 16.34801963 26.95129021 28.56396484 50.48364258 C32.36873925 57.6277578 35.95250331 64.87927217 39.55395508 72.12744141 C42.50135716 78.04479143 45.51204005 83.91828608 48.625 89.75 C55.69958814 103.02589978 62.32328194 116.54006417 69.01618958 130.0111084 C70.5334412 133.06435376 72.05751593 136.11267357 73.60766602 139.14941406 C74.05424561 140.02436523 74.5008252 140.89931641 74.9609375 141.80078125 C75.33138184 142.51790283 75.70182617 143.23502441 76.08349609 143.97387695 C77.55655173 147.23037368 78.28804431 150.50494478 79 154 C76.26337149 151.58438363 74.88896866 149.08739909 73.3125 145.8125 C72.52939453 144.20568359 72.52939453 144.20568359 71.73046875 142.56640625 C71.15941406 141.38949219 70.58835937 140.21257812 70 139 C68.71563153 136.4130019 67.41995311 133.83171231 66.125 131.25 C65.44778906 129.894595 64.77070742 128.53912539 64.09375 127.18359375 C62.66171048 124.31883921 61.22341841 121.45732439 59.78125 118.59765625 C59.23960205 117.52112793 59.23960205 117.52112793 58.68701172 116.42285156 C57.99758653 115.05287655 57.30659642 113.68368753 56.61376953 112.31542969 C55.25387546 109.60962503 53.97618708 106.93742774 52.8984375 104.10546875 C52.1949781 101.82784789 52.1949781 101.82784789 50 101 C49.25424099 99.32674239 48.51549075 97.64972647 47.82568359 95.95263672 C46.5273588 92.88226365 44.9106014 89.98378189 43.3125 87.0625 C39.39251754 79.80344157 35.68314118 72.45228579 32.02197266 65.06005859 C30.25282572 61.49387085 28.46929865 57.93487833 26.6875 54.375 C26.04550935 53.09117762 25.40357911 51.80732503 24.76171875 50.5234375 C23.61429266 48.22858531 22.45096668 45.94159264 21.26953125 43.6640625 C20 41 20 41 20 39 C19.34 38.67 18.68 38.34 18 38 C17.09372035 35.97829923 16.19539787 33.95280097 15.328125 31.9140625 C13.74512247 28.4407687 11.94774263 25.10096977 10.125 21.75 C0 3.05404773 0 3.05404773 0 0 Z " fill="#DA87FA" transform="translate(406,409)"/>
<path d="M0 0 C0.33 0 0.66 0 1 0 C1.09345677 19.32351883 1.16398578 38.64699178 1.20724869 57.97068977 C1.22787067 66.94310182 1.25598429 75.91537342 1.30175781 84.88769531 C1.34163675 92.7083174 1.36743546 100.52883777 1.37635398 108.34955871 C1.38156696 112.49030963 1.39381161 116.63076954 1.42292023 120.77142715 C1.45010617 124.67023925 1.45843868 128.56864095 1.45243073 132.46753883 C1.45352955 133.89699218 1.46146486 135.32645949 1.4768219 136.75583076 C1.61374893 150.15994313 1.61374893 150.15994313 -3 155 C-6.86731102 158.11533388 -11.07582029 159.15416401 -16 159 C-20.91077419 157.92159042 -24.94452031 156.11314574 -28 152 C-30.23000229 146.78280624 -30.27684543 142.07541856 -30.23046875 136.5078125 C-30.23001053 135.60304169 -30.22955231 134.69827087 -30.2290802 133.76608276 C-30.22606878 131.85820194 -30.21821588 129.95032334 -30.20581055 128.04248047 C-30.18760363 125.14151161 -30.18530082 122.24086371 -30.18554688 119.33984375 C-30.18062879 117.47916394 -30.1747992 115.61848627 -30.16796875 113.7578125 C-30.16685593 112.89922638 -30.1657431 112.04064026 -30.16459656 111.15603638 C-30.12468812 106.02098299 -29.73401798 101.08357787 -29 96 C-28.67 96 -28.34 96 -28 96 C-27.98382629 96.62560822 -27.96765259 97.25121643 -27.95098877 97.89578247 C-27.77862559 104.41799048 -27.57961245 110.93900155 -27.36523438 117.45996094 C-27.28875565 119.89237334 -27.21903205 122.32500805 -27.15625 124.7578125 C-27.06472563 128.25861961 -26.94878232 131.75790315 -26.828125 135.2578125 C-26.80502258 136.34240753 -26.78192017 137.42700256 -26.75811768 138.54446411 C-26.52197004 144.60931711 -26.10195198 148.40757686 -22 153 C-21.01 153.66 -20.02 154.32 -19 155 C-19 155.66 -19 156.32 -19 157 C-9.76968369 155.08505906 -9.76968369 155.08505906 -3 149 C-1.69877553 145.0963266 -1.77524506 141.34249717 -1.70336914 137.26928711 C-1.68410055 136.3736738 -1.66483196 135.47806049 -1.64497948 134.55530739 C-1.58244944 131.56689856 -1.52727925 128.5784069 -1.47265625 125.58984375 C-1.43100836 123.47606726 -1.38926359 121.36229267 -1.34742737 119.2485199 C-0.90343103 96.12758213 -0.67623785 73.00417064 -0.46777344 49.88012695 C-0.41611452 44.21889316 -0.36120885 38.55769074 -0.30664062 32.89648438 C-0.20139118 21.93101679 -0.09950317 10.96552114 0 0 Z " fill="#9441EC" transform="translate(763,336)"/>
<path d="M0 0 C3.810416 3.36734437 6.41669224 6.42568032 7.1305542 11.56417847 C7.10390686 12.70557281 7.07725952 13.84696716 7.04980469 15.02294922 C7.02948181 16.32384491 7.00915894 17.6247406 6.98822021 18.96505737 C6.94571307 20.3699475 6.9027542 21.77482403 6.859375 23.1796875 C6.82944699 24.62839225 6.80133698 26.0771356 6.77496338 27.52590942 C6.7009663 31.32402558 6.60240059 35.12111527 6.49859619 38.91851807 C6.39689485 42.79952647 6.31859193 46.68100047 6.23828125 50.5625 C6.07750173 58.16731209 5.8907475 65.77119177 5.6875 73.375 C5.3575 73.375 5.0275 73.375 4.6875 73.375 C3.01255143 51.36139017 3.63087731 29.40670713 4.6875 7.375 C4.0275 7.045 3.3675 6.715 2.6875 6.375 C2.254375 5.715 1.82125 5.055 1.375 4.375 C-0.72636347 1.88449515 -2.14158867 1.71780122 -5.3125 1.375 C-5.3125 0.715 -5.3125 0.055 -5.3125 -0.625 C-6.92035777 -0.03072612 -8.52367709 0.57583588 -10.125 1.1875 C-11.46498047 1.69216797 -11.46498047 1.69216797 -12.83203125 2.20703125 C-15.25180066 3.34641874 -16.49667026 4.47192319 -18.3125 6.375 C-18.9725 6.375 -19.6325 6.375 -20.3125 6.375 C-21.64547814 12.18086034 -21.17254265 17.7311688 -20.875 23.625 C-20.20296783 39.47535885 -20.19431869 55.32500434 -20.1875 71.1875 C-20.18509308 72.45557495 -20.18268616 73.7236499 -20.1802063 75.03015137 C-20.15833576 88.51241169 -20.16415702 101.93363233 -21.3125 115.375 C-21.6425 115.375 -21.9725 115.375 -22.3125 115.375 C-22.6425 98.875 -22.9725 82.375 -23.3125 65.375 C-23.6425 65.375 -23.9725 65.375 -24.3125 65.375 C-24.36350661 58.57978548 -24.39836157 51.78462094 -24.42236328 44.98925781 C-24.43237684 42.68097081 -24.44599163 40.37269636 -24.46337891 38.06445312 C-24.48783227 34.73304128 -24.49902989 31.4017982 -24.5078125 28.0703125 C-24.51813507 27.05011017 -24.52845764 26.02990784 -24.53909302 24.97879028 C-24.54159153 8.76559007 -24.54159153 8.76559007 -20 2.875 C-14.26105317 -2.4635552 -7.06275638 -3.46474841 0 0 Z " fill="#E88EFB" transform="translate(699.3125,315.625)"/>
<path d="M0 0 C3.28465896 2.79196011 5.01321958 6.23196817 7 10 C7 10.66 7 11.32 7 12 C7.99 12.33 8.98 12.66 10 13 C10.33 14.98 10.66 16.96 11 19 C11.66 19 12.32 19 13 19 C13.67154933 20.28913487 14.33708859 21.58140204 15 22.875 C15.37125 23.59429688 15.7425 24.31359375 16.125 25.0546875 C17 27 17 27 17 29 C17.99 29.33 18.98 29.66 20 30 C21.3515625 31.9609375 21.3515625 31.9609375 22.625 34.375 C23.05039062 35.16648437 23.47578125 35.95796875 23.9140625 36.7734375 C25 39 25 39 26 42 C26.66 42.33 27.32 42.66 28 43 C28.625 45.0625 28.625 45.0625 29 47 C29.66 47 30.32 47 31 47 C31 47.66 31 48.32 31 49 C31.66 49.33 32.32 49.66 33 50 C33.66666667 51.66666667 34.33333333 53.33333333 35 55 C36.32405988 57.00615134 37.65668346 59.00669158 39 61 C39.33 61.99 39.66 62.98 40 64 C40.7425 64.721875 41.485 65.44375 42.25 66.1875 C46.49818445 70.53223409 49.34720021 75.56115476 52 81 C52.66 81 53.32 81 54 81 C54.556875 82.0725 55.11375 83.145 55.6875 84.25 C57.66089708 87.70689489 59.82710751 89.56498949 63 92 C64.1673492 93.29340099 65.31141136 94.60802091 66.4375 95.9375 C68.57218436 98.44889336 70.65655046 100.65392666 73.25 102.6875 C75.94794272 104.95622456 77.40066001 106.89017225 79 110 C75.60140297 108.53033642 73.35036291 106.61962486 70.75 104 C69.69039062 102.948125 69.69039062 102.948125 68.609375 101.875 C67 100 67 100 67 98 C66.41992188 97.91492188 65.83984375 97.82984375 65.2421875 97.7421875 C49.84657938 92.64608028 35.23375701 61.04221097 27 48 C26.20577637 46.75162354 26.20577637 46.75162354 25.39550781 45.47802734 C18.69132693 34.92454626 12.31934377 24.20757685 6.1875 13.3125 C5.57011963 12.21848877 4.95273926 11.12447754 4.31665039 9.99731445 C3.75196045 8.9837085 3.18727051 7.97010254 2.60546875 6.92578125 C2.10168701 6.02255127 1.59790527 5.11932129 1.07885742 4.1887207 C0 2 0 2 0 0 Z " fill="#752DD6" transform="translate(428,671)"/>
<path d="M0 0 C0.33 0 0.66 0 1 0 C1 5.94 1 11.88 1 18 C1.66 18.33 2.32 18.66 3 19 C2.98839844 19.75925781 2.97679687 20.51851562 2.96484375 21.30078125 C2.95582031 22.29464844 2.94679688 23.28851562 2.9375 24.3125 C2.92589844 25.29863281 2.91429687 26.28476562 2.90234375 27.30078125 C2.87670138 30.09963849 2.87670138 30.09963849 4 33 C3.85691406 33.81984375 3.71382812 34.6396875 3.56640625 35.484375 C2.77166613 40.4172447 2.89772916 45.26242823 2.9375 50.25 C2.94128662 51.34030518 2.94507324 52.43061035 2.94897461 53.55395508 C2.96522288 58.19731355 2.99317512 62.84058228 3.02050781 67.48388672 C3.15585538 92.64784895 3.15585538 92.64784895 2 104 C1.67 104 1.34 104 1 104 C0.96241577 102.61047119 0.96241577 102.61047119 0.92407227 101.19287109 C0.82771578 97.68514526 0.72857773 94.17751912 0.62768555 90.66992188 C0.58494133 89.16506928 0.54323809 87.66018668 0.50268555 86.15527344 C0.44348011 83.96540337 0.38025881 81.77567647 0.31640625 79.5859375 C0.26141968 77.62213135 0.26141968 77.62213135 0.20532227 75.61865234 C0.06820438 71.84033788 -0.2180303 68.08145965 -0.51147461 64.31225586 C-1.02320592 57.33794024 -1.14512272 50.40879588 -1.1328125 43.41796875 C-1.13376923 42.19717117 -1.13472595 40.9763736 -1.13571167 39.71858215 C-1.13638594 37.17005359 -1.13458487 34.62152322 -1.13037109 32.07299805 C-1.12495112 28.15214278 -1.13037235 24.23139893 -1.13671875 20.31054688 C-1.13605902 17.82552058 -1.13478003 15.34049435 -1.1328125 12.85546875 C-1.13483673 11.67961716 -1.13686096 10.50376556 -1.13894653 9.2922821 C-1.13579437 8.21638321 -1.13264221 7.14048431 -1.12939453 6.03198242 C-1.12859894 5.08159592 -1.12780334 4.13120941 -1.12698364 3.15202332 C-1 1 -1 1 0 0 Z " fill="#8031EA" transform="translate(619,528)"/>
<path d="M0 0 C3.29489338 3.81146915 5.58282198 7.81014604 7.75219727 12.32348633 C8.45631698 13.75989081 9.16076299 15.19613538 9.86550903 16.63223267 C10.39811781 17.72471502 10.39811781 17.72471502 10.94148636 18.83926773 C12.57411605 22.17193679 14.24784573 25.48351823 15.92163086 28.7956543 C16.5853167 30.11274912 17.24880176 31.42994513 17.91209412 32.74723816 C18.24692747 33.41203878 18.58176083 34.07683941 18.92674065 34.76178551 C21.12540523 39.12994404 23.31927302 43.5005142 25.51323605 47.87103558 C27.42732798 51.68342982 29.34371623 55.49463704 31.26489258 59.3034668 C33.14672966 63.03455781 35.02269434 66.76854713 36.89462471 70.50461769 C37.60339521 71.91663737 38.314269 73.32760341 39.02732658 74.737463 C40.01853921 76.69811147 41.00217741 78.66238724 41.98413086 80.62768555 C42.82396767 82.29736641 42.82396767 82.29736641 43.68077087 84.0007782 C46.02237446 89.32433298 46.26862142 92.3081984 44.1875 97.75 C43.83042969 98.71421875 43.47335937 99.6784375 43.10546875 100.671875 C42 103 42 103 40 104 C40.32484375 103.1646875 40.32484375 103.1646875 40.65625 102.3125 C42.61352595 96.94811407 43.31098961 92.70147617 43 87 C42.34 87 41.68 87 41 87 C40.60167969 86.03578125 40.20335937 85.0715625 39.79296875 84.078125 C39.25810566 82.80196043 38.72293304 81.52592555 38.1875 80.25 C37.92646484 79.61578125 37.66542969 78.9815625 37.39648438 78.328125 C35.92750718 74.84610499 34.34670129 71.94940599 32 69 C31.27823566 67.68489914 30.58931748 66.35113582 29.9375 65 C29.61652344 64.34 29.29554688 63.68 28.96484375 63 C28.64644531 62.34 28.32804688 61.68 28 61 C27.63003906 60.34 27.26007812 59.68 26.87890625 59 C26 57 26 57 26 53 C25.34 53 24.68 53 24 53 C23.49210938 51.98421875 22.98421875 50.9684375 22.4609375 49.921875 C22.13029297 49.26074707 21.79964844 48.59961914 21.45898438 47.91845703 C20.73320362 46.46656859 20.00794757 45.01441774 19.28320312 43.56201172 C17.57838254 40.14709013 15.86909822 36.73498543 14.1328125 33.3359375 C13.59398437 32.27632812 13.05515625 31.21671875 12.5 30.125 C12.0153125 29.17882812 11.530625 28.23265625 11.03125 27.2578125 C10 25 10 25 10 23 C9.34 22.67 8.68 22.34 8 22 C7.30539173 20.14965696 6.69335204 18.26794109 6.125 16.375 C4.94709374 12.65086782 3.77747158 9.28067122 1.75 5.9375 C0 3 0 3 0 0 Z " fill="#6420CA" transform="translate(530,649)"/>
<path d="M0 0 C2.8329165 1.96124989 4.57138168 3.28773238 6.25 6.25 C6.25 6.91 6.25 7.57 6.25 8.25 C5.26 8.25 4.27 8.25 3.25 8.25 C3.25 6.93 3.25 5.61 3.25 4.25 C2.6725 4.146875 2.095 4.04375 1.5 3.9375 C-0.75 3.25 -0.75 3.25 -2.6875 1.6875 C-5.28736038 -0.1245239 -6.63619404 -0.13922574 -9.75 0.25 C-13.26528734 1.56823275 -16.01511739 3.70110246 -18.75 6.25 C-21.57524363 14.68561959 -21.02092415 24.40557689 -20.9453125 33.20703125 C-20.9424826 34.47600754 -20.93965271 35.74498383 -20.93673706 37.05241394 C-20.92752987 40.37814477 -20.90965633 43.70358464 -20.8873291 47.02923584 C-20.86663518 50.44199144 -20.85768574 53.85477747 -20.84765625 57.26757812 C-20.82575316 63.92846361 -20.79239568 70.58921507 -20.75 77.25 C-22.9911931 73.19216193 -23.18633794 69.44851207 -23.359375 64.890625 C-23.39649597 64.0585553 -23.43361694 63.2264856 -23.47186279 62.36920166 C-23.8490354 53.19261122 -23.97106523 44.01320805 -23.99023438 34.82958984 C-24.00013688 31.96033765 -24.031404 29.09174777 -24.0625 26.22265625 C-24.06901569 24.37239998 -24.07427175 22.52213873 -24.078125 20.671875 C-24.0966452 19.40461578 -24.0966452 19.40461578 -24.11553955 18.11175537 C-24.09534266 12.73436735 -23.28954763 9.01679336 -20.75 4.25 C-14.89718484 -1.44879371 -7.59453724 -4.06964654 0 0 Z " fill="#ED97F9" transform="translate(756.75,263.75)"/>
<path d="M0 0 C1.75095775 3.03372035 2.24840387 5.2054879 2.24050903 8.69500732 C2.24325836 9.63447708 2.24600769 10.57394684 2.24884033 11.54188538 C2.24164978 12.56543625 2.23445923 13.58898712 2.22705078 14.64355469 C2.22734283 15.72678513 2.22763489 16.81001556 2.22793579 17.92607117 C2.22654197 21.50808714 2.21097804 25.08989535 2.1953125 28.671875 C2.19158256 31.15480435 2.1887355 33.63773516 2.18673706 36.1206665 C2.17987987 41.98899515 2.1641154 47.85724703 2.14403808 53.72554421 C2.11947951 61.06311119 2.10874595 68.40068255 2.09765625 75.73828125 C2.07620347 88.82555873 2.04244968 101.91277464 2 115 C1.01 115 0.02 115 -1 115 C-2.18681726 111.43954823 -2.09689832 108.56191663 -2.0625 104.8125 C-2.05347656 103.54019531 -2.04445313 102.26789063 -2.03515625 100.95703125 C-2.02355469 99.98121094 -2.01195312 99.00539063 -2 98 C-1.34 98 -0.68 98 0 98 C-0.33902344 97.28972656 -0.67804687 96.57945312 -1.02734375 95.84765625 C-2.1154364 92.66203559 -2.00902702 90.747324 -1.5625 87.4375 C-1.02750118 83.64765997 -1.02750118 83.64765997 -1.52734375 79.91015625 C-2 78 -2 78 -1.54237366 76.33355713 C-0.79546351 73.11998383 -0.83394771 70.05160796 -0.79467773 66.75292969 C-0.78477814 66.03058136 -0.77487854 65.30823303 -0.76467896 64.56399536 C-0.73316516 62.18332158 -0.7083467 59.80262787 -0.68359375 57.421875 C-0.66301547 55.76848846 -0.64201877 54.11510709 -0.62062073 52.46173096 C-0.56549026 48.11511417 -0.51604127 43.76845062 -0.46777344 39.42175293 C-0.41749243 34.9842514 -0.36184084 30.54681758 -0.30664062 26.109375 C-0.19916947 17.4063073 -0.09770009 8.70318285 0 0 Z " fill="#7F33DF" transform="translate(648,486)"/>
<path d="M0 0 C0.33 0 0.66 0 1 0 C1.03148961 9.29164895 1.05127847 18.58330601 1.0625 27.875 C1.06335602 28.57864685 1.06421204 29.2822937 1.06509399 30.00726318 C1.0904405 53.67549195 0.88550287 77.3349861 0.5 101 C0.48804218 101.73443077 0.47608437 102.46886154 0.46376419 103.22554779 C0.31768335 112.15051672 0.16328821 121.0753282 0 130 C-2.48839325 127.51160675 -2.23503088 126.06910338 -2.24884033 122.67425537 C-2.24164978 121.93338684 -2.23445923 121.19251831 -2.22705078 120.42919922 C-2.22748886 119.25833267 -2.22748886 119.25833267 -2.22793579 118.06381226 C-2.22653968 115.47732522 -2.21096542 112.89112436 -2.1953125 110.3046875 C-2.19158337 108.51392779 -2.18873592 106.72316604 -2.18673706 104.93240356 C-2.17909275 100.21411528 -2.15943745 95.49594969 -2.1373291 90.77770996 C-2.11688782 85.96510478 -2.10773903 81.15247981 -2.09765625 76.33984375 C-2.07619228 66.89317519 -2.04204675 57.44659779 -2 48 C-1.67 48 -1.34 48 -1 48 C-0.67 32.16 -0.34 16.32 0 0 Z " fill="#8C39ED" transform="translate(705,423)"/>
<path d="M0 0 C0.33 0 0.66 0 1 0 C1 5.94 1 11.88 1 18 C1.66 18.33 2.32 18.66 3 19 C3.12902326 42.35718072 2.87739978 65.65789903 2 89 C1.01 88.34 0.02 87.68 -1 87 C-1.28308846 84.23930579 -1.3711026 81.7065181 -1.328125 78.9453125 C-1.32661438 78.11206955 -1.32510376 77.2788266 -1.32354736 76.42033386 C-1.31408344 73.65491606 -1.28240246 70.890237 -1.25 68.125 C-1.23803737 66.20858285 -1.22698172 64.29215984 -1.21679688 62.37573242 C-1.07737804 41.58005846 -0.56849188 20.7877523 0 0 Z " fill="#8D39EE" transform="translate(676,464)"/>
<path d="M0 0 C0.33 0 0.66 0 1 0 C1.02329589 12.48400697 1.04100224 24.96800866 1.05181217 37.45203304 C1.05700358 43.25050061 1.06403224 49.04895317 1.07543945 54.84741211 C1.08640259 60.45602628 1.09230493 66.06462613 1.09487724 71.6732502 C1.09670753 73.79996529 1.10028087 75.9266797 1.10573006 78.0533886 C1.13609617 90.40988797 0.91299339 102.67481567 0 115 C-0.33 115 -0.66 115 -1 115 C-1.68308308 96.65849264 -2.17024338 78.35747468 -2 60 C-1.67 60 -1.34 60 -1 60 C-0.505 30.3 -0.505 30.3 0 0 Z " fill="#C96DF7" transform="translate(705,325)"/>
<path d="M0 0 C2.6534249 2.36668706 4.07292234 4.78142959 5.64794922 7.95532227 C6.15212372 8.96389786 6.65629822 9.97247345 7.17575073 11.01161194 C7.71329987 12.10219406 8.250849 13.19277618 8.8046875 14.31640625 C9.36568146 15.44263901 9.92667542 16.56887177 10.50466919 17.72923279 C11.99649096 20.72682937 13.48307649 23.72690667 14.96716309 26.72833252 C16.46213812 29.74873691 17.96371792 32.76585228 19.46484375 35.78320312 C22.1722661 41.22799148 24.87555873 46.67478801 27.56951904 52.12625122 C28.51707954 54.02984233 29.47469917 55.92846194 30.44268799 57.82174683 C30.88973083 58.69775543 31.33677368 59.57376404 31.79736328 60.47631836 C32.19142365 61.24028427 32.58548401 62.00425018 32.9914856 62.79136658 C34.51152377 66.12023041 35.27093139 69.4209359 36 73 C33.26337149 70.58438363 31.88896866 68.08739909 30.3125 64.8125 C29.79042969 63.74128906 29.26835937 62.67007813 28.73046875 61.56640625 C28.15941406 60.38949219 27.58835937 59.21257813 27 58 C25.71563153 55.4130019 24.41995311 52.83171231 23.125 50.25 C22.44778906 48.894595 21.77070742 47.53912539 21.09375 46.18359375 C19.66171048 43.31883921 18.22341841 40.45732439 16.78125 37.59765625 C16.42015137 36.8799707 16.05905273 36.16228516 15.68701172 35.42285156 C14.99758653 34.05287655 14.30659642 32.68368753 13.61376953 31.31542969 C12.25387546 28.60962503 10.97618708 25.93742774 9.8984375 23.10546875 C9.1949781 20.82784789 9.1949781 20.82784789 7 20 C6.55949793 18.13633739 6.12281413 16.27167652 5.70703125 14.40234375 C4.62434111 10.72358996 2.82856773 7.47183454 1.0234375 4.1015625 C0 2 0 2 0 0 Z " fill="#C673F6" transform="translate(449,490)"/>
<path d="M0 0 C0.33 0 0.66 0 1 0 C1.75709811 5.36517972 2.13878201 10.57733758 2.09765625 16 C2.0962413 16.7211499 2.09482635 17.4422998 2.09336853 18.18530273 C2.08783381 20.45691324 2.07529423 22.72842 2.0625 25 C2.05747654 26.55338398 2.05291512 28.10676952 2.04882812 29.66015625 C2.03788589 33.44014328 2.0206676 37.22005414 2 41 C2.66 41.33 3.32 41.66 4 42 C3.67 57.18 3.34 72.36 3 88 C2.67 88 2.34 88 2 88 C1.67 80.08 1.34 72.16 1 64 C0.67 64 0.34 64 0 64 C0 42.88 0 21.76 0 0 Z " fill="#AE56F4" transform="translate(733,376)"/>
<path d="M0 0 C0.33 0 0.66 0 1 0 C1.33 7.59 1.66 15.18 2 23 C2.66 23.33 3.32 23.66 4 24 C4.07448191 35.15676906 3.84487932 46.28678774 3.5 57.4375 C3.45161926 59.05533246 3.40344115 60.673171 3.35546875 62.29101562 C3.23930433 66.19408405 3.12043537 70.09706112 3 74 C2.67 74 2.34 74 2 74 C-0.58413837 59.40996059 -0.23748014 44.78208583 -0.1373291 30.01477051 C-0.11656662 26.62185185 -0.10767159 23.22890188 -0.09765625 19.8359375 C-0.07580594 13.22387885 -0.04249057 6.61195656 0 0 Z " fill="#D67BF8" transform="translate(733,318)"/>
<path d="M0 0 C0.33 0 0.66 0 1 0 C1.09273443 11.10931122 1.16378263 22.21853015 1.20724869 33.3281498 C1.22811166 38.48697214 1.25640597 43.64552942 1.30175781 48.80419922 C1.34526124 53.78385392 1.36914681 58.76325386 1.37950897 63.74308395 C1.38689224 65.64168686 1.40131014 67.54027602 1.42292023 69.43877029 C1.45201408 72.10092403 1.45595352 74.76202893 1.45410156 77.42431641 C1.47567322 78.59820419 1.47567322 78.59820419 1.49768066 79.79580688 C1.45871632 84.98191882 0.37650672 87.85709542 -3 92 C-6.24889233 94.8550872 -8.84296852 95.88656554 -13.1875 96.3125 C-17.86012971 95.92949756 -21.00115935 94.32659819 -25 92 C-25 91.01 -25 90.02 -25 89 C-24.195625 89.66 -23.39125 90.32 -22.5625 91 C-18.60971387 93.64770947 -14.61862516 93.72218502 -10 93 C-6.01194717 91.32312221 -2.96299183 88.92598366 -1 85 C-0.87751784 82.31574013 -0.81430178 79.65572215 -0.79467773 76.97021484 C-0.77982834 75.72619652 -0.77982834 75.72619652 -0.76467896 74.45704651 C-0.73302336 71.70837281 -0.70829051 68.95968182 -0.68359375 66.2109375 C-0.66302773 64.30807031 -0.64203135 62.40520773 -0.62062073 60.50234985 C-0.56536373 55.48823775 -0.51597047 50.47408418 -0.46777344 45.4598999 C-0.41758488 40.34562478 -0.36188502 35.23141006 -0.30664062 30.1171875 C-0.19901469 20.07817657 -0.09757958 10.03911325 0 0 Z " fill="#8835D9" transform="translate(591,448)"/>
<path d="M0 0 C3.22547421 3.98440932 4.41583841 6.45525008 4.1015625 11.609375 C4.05 12.54394531 3.9984375 13.47851562 3.9453125 14.44140625 C3.88085938 15.40949219 3.81640625 16.37757813 3.75 17.375 C3.69328125 18.35855469 3.6365625 19.34210938 3.578125 20.35546875 C3.43692448 22.779411 3.28554205 25.20227459 3.125 27.625 C2.795 27.625 2.465 27.625 2.125 27.625 C2.08761719 26.32304687 2.05023437 25.02109375 2.01171875 23.6796875 C1.94603326 21.95309743 1.87958682 20.22653619 1.8125 18.5 C1.78994141 17.6440625 1.76738281 16.788125 1.74414062 15.90625 C1.52857458 10.81105256 1.03095835 6.99075902 -1.875 2.625 C-6.22835882 0.16083463 -9.88681479 -1.1179212 -14.875 -0.375 C-19.2611788 1.85536233 -19.2611788 1.85536233 -21.75 5.875 C-21.79125 6.4525 -21.8325 7.03 -21.875 7.625 C-23.195 7.955 -24.515 8.285 -25.875 8.625 C-24.59611349 3.62571637 -22.95934205 0.82144161 -18.875 -2.375 C-12.0684981 -5.45031456 -5.73831795 -4.74034961 0 0 Z " fill="#D479FB" transform="translate(587.875,438.375)"/>
<path d="M0 0 C0.33 0 0.66 0 1 0 C1.09922625 5.01703179 1.17163587 10.03348652 1.21972656 15.05126953 C1.23978369 16.75644894 1.26703657 18.46156006 1.30175781 20.16650391 C1.35053861 22.62419524 1.37302719 25.08097366 1.390625 27.5390625 C1.41127014 28.29555084 1.43191528 29.05203918 1.45318604 29.83145142 C1.45535821 35.01013255 0.38142127 37.8703593 -3 42 C-6.86731102 45.11533388 -11.07582029 46.15416401 -16 46 C-20.81172291 44.94334216 -25.17715397 43.17781213 -28 39 C-28.60704605 36.29682911 -28.81454422 33.78183665 -29 31 C-28.5978125 31.8353125 -28.5978125 31.8353125 -28.1875 32.6875 C-27.795625 33.450625 -27.40375 34.21375 -27 35 C-26.566875 35.845625 -26.13375 36.69125 -25.6875 37.5625 C-23.63398813 40.52868381 -22.37480715 41.67942329 -19 43 C-13.05285541 43.27482184 -8.54121203 41.98740569 -4 38 C-2.58809436 35.39562767 -2.58809436 35.39562767 -2 33 C-1.34 33 -0.68 33 0 33 C0 22.11 0 11.22 0 0 Z " fill="#732BD1" transform="translate(763,449)"/>
<path d="M0 0 C3.35616212 1.38530947 4.80022248 2.75521908 6.625 5.875 C7.23214844 6.89207031 7.23214844 6.89207031 7.8515625 7.9296875 C8.9599051 9.92772008 9.99673895 11.94745675 11 14 C11.66 14 12.32 14 13 14 C13.556875 15.0725 14.11375 16.145 14.6875 17.25 C16.66089708 20.70689489 18.82710751 22.56498949 22 25 C23.1673492 26.29340099 24.31141136 27.60802091 25.4375 28.9375 C27.57218436 31.44889336 29.65655046 33.65392666 32.25 35.6875 C34.94794272 37.95622456 36.40066001 39.89017225 38 43 C34.60140297 41.53033642 32.35036291 39.61962486 29.75 37 C28.69039063 35.948125 28.69039063 35.948125 27.609375 34.875 C26 33 26 33 26 31 C25.42121094 30.91621094 24.84242188 30.83242188 24.24609375 30.74609375 C16.61983 28.21284788 10.49874475 16.76945488 5.9375 10.5 C5.35299072 9.69828369 4.76848145 8.89656738 4.16625977 8.07055664 C3.62541748 7.31508545 3.0845752 6.55961426 2.52734375 5.78125 C2.03999756 5.10126953 1.55265137 4.42128906 1.05053711 3.72070312 C0 2 0 2 0 0 Z " fill="#611EC9" transform="translate(469,738)"/>
<path d="M0 0 C0.33 0 0.66 0 1 0 C1.66 6.6 2.32 13.2 3 20 C3.33 20 3.66 20 4 20 C4.22864972 35.67520851 3.55473735 51.33752193 3 67 C2.67 67 2.34 67 2 67 C0.73491307 44.65069165 -0.38547338 22.39303808 0 0 Z " fill="#CB6FFC" transform="translate(618,421)"/>
<path d="M0 0 C0.66 0.33 1.32 0.66 2 1 C2.09935879 6.69249459 2.17169923 12.38447718 2.21972656 18.07763672 C2.23976141 20.01164552 2.26699729 21.94559435 2.30175781 23.87939453 C2.35063571 26.66974743 2.37305019 29.45929501 2.390625 32.25 C2.41127014 33.10553467 2.43191528 33.96106934 2.45318604 34.8425293 C2.45542893 40.93183685 1.06768894 44.73503906 -2 50 C-2.99 50 -3.98 50 -5 50 C-4.51845459 49.43514893 -4.03690918 48.87029785 -3.54077148 48.28833008 C-1.82691294 45.74293377 -1.54544664 44.41498894 -1.34765625 41.38671875 C-1.28336426 40.41782715 -1.21907227 39.44893555 -1.15283203 38.45068359 C-0.83345099 31.23961079 -0.61703325 24.02827112 -0.4375 16.8125 C-0.39420212 15.17642374 -0.3505847 13.54035591 -0.30664062 11.90429688 C-0.20074659 7.93628532 -0.09916477 3.96818519 0 0 Z " fill="#8C3FE0" transform="translate(818,384)"/>
<path d="M0 0 C4.45019792 4.22768802 7.57769258 8.77701025 10.3125 14.26171875 C10.60809814 14.85241653 10.90369629 15.44311432 11.20825195 16.05171204 C11.82954656 17.29662886 12.44791263 18.54301112 13.06347656 19.79077148 C13.99056077 21.66838285 14.92805674 23.54049963 15.8671875 25.41210938 C23.51018742 40.72882949 23.51018742 40.72882949 25 46 C24.67 46.66 24.34 47.32 24 48 C21.2431847 43.26096131 18.67593896 38.47792617 16.25 33.5625 C15.91000977 32.87873291 15.57001953 32.19496582 15.21972656 31.49047852 C13.7827291 28.60031902 12.35056434 25.70777294 10.91796875 22.81542969 C9.86366503 20.68861156 8.80688312 18.56303722 7.75 16.4375 C7.43321289 15.79562744 7.11642578 15.15375488 6.79003906 14.49243164 C5.21044432 11.3162528 3.56321731 8.21906443 1.765625 5.16015625 C0 2 0 2 0 0 Z " fill="#CE79F8" transform="translate(381,360)"/>
<path d="M0 0 C2.08745045 3.13117567 2.27653996 4.06946224 2.4140625 7.66796875 C2.45273437 8.56064453 2.49140625 9.45332031 2.53125 10.37304688 C2.57765625 11.76620117 2.57765625 11.76620117 2.625 13.1875 C2.66367187 14.12787109 2.70234375 15.06824219 2.7421875 16.03710938 C2.83643187 18.3578771 2.92204025 20.67863748 3 23 C3.33 23 3.66 23 4 23 C4 31.25 4 39.5 4 48 C3.01 48.495 3.01 48.495 2 49 C1.67 43.39 1.34 37.78 1 32 C0.67 32 0.34 32 0 32 C0 21.44 0 10.88 0 0 Z " fill="#9844F3" transform="translate(618,497)"/>
<path d="M0 0 C0.99 0 1.98 0 3 0 C5.16470025 4.23074633 7.31897187 8.46657458 9.46362305 12.70751953 C10.19513104 14.15038289 10.92950052 15.59179915 11.66674805 17.03173828 C12.72414328 19.09817443 13.77123921 21.16954544 14.81640625 23.2421875 C15.14967422 23.88807831 15.4829422 24.53396912 15.8263092 25.19943237 C16.61219495 26.77041344 17.31452653 28.38267998 18 30 C17.67 30.66 17.34 31.32 17 32 C13.80118132 29.28645102 12.09220777 25.7839953 10.1875 22.125 C9.84074219 21.46677246 9.49398438 20.80854492 9.13671875 20.13037109 C0 2.6169272 0 2.6169272 0 0 Z " fill="#D27FF8" transform="translate(406,409)"/>
<path d="M0 0 C0.33 0 0.66 0 1 0 C1.66 11.88 2.32 23.76 3 36 C3.33 36 3.66 36 4 36 C4.12910853 42.74233419 3.797837 49.30386804 3 56 C2.67 56 2.34 56 2 56 C0.29461487 37.25210257 -0.26732119 18.81324301 0 0 Z " fill="#DA7EFB" transform="translate(618,392)"/>
<path d="M0 0 C0.33 0 0.66 0 1 0 C1.16915136 6.26200748 1.32886151 12.52420606 1.48217773 18.78662109 C1.53536926 20.91460553 1.59067888 23.04253817 1.64819336 25.17041016 C1.7307459 28.23849318 1.80554343 31.30668511 1.87890625 34.375 C1.90594131 35.31802979 1.93297638 36.26105957 1.96083069 37.23266602 C2.08086953 42.61050252 1.80943552 47.68007361 1 53 C0.67 53 0.34 53 0 53 C-1.09631363 26.09366453 -1.09631363 26.09366453 -1.125 13.5625 C-1.12951172 12.76038086 -1.13402344 11.95826172 -1.13867188 11.13183594 C-1.12870068 7.29791042 -0.93341144 3.72623774 0 0 Z " fill="#D278F6" transform="translate(648,384)"/>
<path d="M0 0 C4.81960897 5.17661704 7.33057154 11.66461377 9.8425293 18.18798828 C12.82837428 25.90531997 16.54983057 33.16156499 20.37304688 40.4921875 C20.85451172 41.43320312 21.33597656 42.37421875 21.83203125 43.34375 C22.27264893 44.19130859 22.7132666 45.03886719 23.16723633 45.91210938 C23.44204834 46.60111328 23.71686035 47.29011719 24 48 C23.67 48.66 23.34 49.32 23 50 C21.39479066 46.95888251 19.79102164 43.91700767 18.1875 40.875 C17.73568359 40.0190625 17.28386719 39.163125 16.81835938 38.28125 C10 25.3412979 10 25.3412979 10 23 C9.34 22.67 8.68 22.34 8 22 C7.30539173 20.14965696 6.69335204 18.26794109 6.125 16.375 C4.94709374 12.65086782 3.77747158 9.28067122 1.75 5.9375 C0 3 0 3 0 0 Z " fill="#8032E7" transform="translate(530,649)"/>
<path d="M0 0 C3.28234125 2.73760689 4.89742011 6.36230805 6.7578125 10.1171875 C7.1063327 10.81135773 7.45485291 11.50552795 7.81393433 12.22073364 C8.54801626 13.68685982 9.27908169 15.15449973 10.00732422 16.62353516 C11.11967687 18.864277 12.24465408 21.09834421 13.37109375 23.33203125 C14.08410301 24.76003262 14.79636749 26.18840616 15.5078125 27.6171875 C16.01092453 28.61430252 16.01092453 28.61430252 16.52420044 29.63156128 C18.22407756 33.08307417 19.4109003 36.20018303 20 40 C20.64389782 42.00744615 21.30562253 44.00945124 22 46 C18.87729874 43.48169253 18.05476902 42.2738451 17.25 38.25 C17.1675 37.1775 17.085 36.105 17 35 C16.34 35 15.68 35 15 35 C14.63261719 33.77152344 14.26523437 32.54304687 13.88671875 31.27734375 C11.81695115 25.06560736 8.80910787 19.36864835 5.8125 13.5625 C4.71129606 11.4197883 3.61345348 9.27534462 2.51953125 7.12890625 C2.03589111 6.19119385 1.55225098 5.25348145 1.05395508 4.28735352 C0 2 0 2 0 0 Z " fill="#6D27CF" transform="translate(539,667)"/>
<path d="M0 0 C2.81202186 2.46362977 4.19740219 5.08717313 5.8125 8.4375 C6.33070313 9.49710937 6.84890625 10.55671875 7.3828125 11.6484375 C8.4609375 13.8828125 9.5390625 16.1171875 10.6171875 18.3515625 C11.13539063 19.41117187 11.65359375 20.47078125 12.1875 21.5625 C12.65542969 22.53316406 13.12335938 23.50382812 13.60546875 24.50390625 C14.8873407 26.79834932 16.11912951 28.21298867 18 30 C18.73046875 32.26171875 18.73046875 32.26171875 19.1875 34.6875 C19.34605469 35.49574219 19.50460938 36.30398438 19.66796875 37.13671875 C19.77753906 37.75160156 19.88710937 38.36648438 20 39 C16.7284205 36.28037409 15.18086369 32.691557 13.375 28.9375 C12.67488025 27.50631414 11.97434229 26.07533281 11.2734375 24.64453125 C10.90702148 23.89252441 10.54060547 23.14051758 10.16308594 22.36572266 C8.95305314 19.90450985 7.71846994 17.45699167 6.4765625 15.01171875 C6.0635791 14.19646729 5.6505957 13.38121582 5.22509766 12.54125977 C4.41731139 10.94806314 3.60714261 9.35607196 2.79443359 7.76538086 C0 2.22397097 0 2.22397097 0 0 Z " fill="#823ADA" transform="translate(234,297)"/>
<path d="M0 0 C1.32 0.33 2.64 0.66 4 1 C4 1.66 4 2.32 4 3 C4.66 3.33 5.32 3.66 6 4 C6.66666667 5.66666667 7.33333333 7.33333333 8 9 C9.32405988 11.00615134 10.65668346 13.00669158 12 15 C12.33 15.99 12.66 16.98 13 18 C13.99 18.66 14.98 19.32 16 20 C15.67 20.66 15.34 21.32 15 22 C11.41834254 20.80611418 11.03601341 19.93792912 9.08203125 16.81640625 C8.55029297 15.97142578 8.01855469 15.12644531 7.47070312 14.25585938 C6.92349609 13.36705078 6.37628906 12.47824219 5.8125 11.5625 C5.25369141 10.67755859 4.69488281 9.79261719 4.11914062 8.88085938 C0 2.27715774 0 2.27715774 0 0 Z " fill="#6C26D2" transform="translate(455,717)"/>
<path d="M0 0 C3.49777425 1.84788073 6.15328671 3.77556111 8.11328125 7.234375 C8.11328125 7.894375 8.11328125 8.554375 8.11328125 9.234375 C7.12328125 9.234375 6.13328125 9.234375 5.11328125 9.234375 C5.11328125 7.914375 5.11328125 6.594375 5.11328125 5.234375 C4.53578125 5.13125 3.95828125 5.028125 3.36328125 4.921875 C1.11328125 4.234375 1.11328125 4.234375 -0.82421875 2.671875 C-3.42407913 0.8598511 -4.77291279 0.84514926 -7.88671875 1.234375 C-11.53806609 2.64779978 -14.66447014 5.03738731 -17.88671875 7.234375 C-17.52020245 4.74206415 -17.29992901 3.56091189 -15.28515625 1.96875 C-10.15621265 -0.52641175 -5.6336514 -2.28611941 0 0 Z " fill="#E99CF2" transform="translate(754.88671875,262.765625)"/>
<path d="M0 0 C0.33 0.66 0.66 1.32 1 2 C-3.29 1.34 -7.58 0.68 -12 0 C-12 0.66 -12 1.32 -12 2 C-12.969375 2.61875 -13.93875 3.2375 -14.9375 3.875 C-18.10540099 5.65036352 -18.10540099 5.65036352 -18.875 8.25 C-18.91625 8.8275 -18.9575 9.405 -19 10 C-20.32 10.33 -21.64 10.66 -23 11 C-21.72111349 6.00071637 -20.08434205 3.19644161 -16 0 C-10.28539969 -2.58197145 -5.81180902 -2.03923123 0 0 Z " fill="#C871F5" transform="translate(585,436)"/>
<path d="M0 0 C0.33 0 0.66 0 1 0 C1.16874595 3.22906151 1.33462737 6.45826411 1.5 9.6875 C1.54769531 10.59951172 1.59539063 11.51152344 1.64453125 12.45117188 C1.68964844 13.33740234 1.73476563 14.22363281 1.78125 15.13671875 C1.82314453 15.94842529 1.86503906 16.76013184 1.90820312 17.59643555 C2.00254779 20.06671004 2.01538879 22.52817489 2 25 C0.66666667 25 -0.66666667 25 -2 25 C-2.12514899 18.61740167 -2.12514899 18.61740167 -1.53125 15.6875 C-0.90517813 12.52031292 -0.66515272 9.40715983 -0.4375 6.1875 C-0.35371094 5.02605469 -0.26992188 3.86460937 -0.18359375 2.66796875 C-0.12300781 1.78753906 -0.06242188 0.90710938 0 0 Z " fill="#6A24D0" transform="translate(648,592)"/>
<path d="M0 0 C0.969375 0.66 1.93875 1.32 2.9375 2 C7.19276815 4.43899516 11.1876352 4.76499699 16 4 C17.34536095 3.35795161 18.6808418 2.69429379 20 2 C20.66 2 21.32 2 22 2 C21 5 21 5 18.875 6.1875 C12.5924253 7.96301024 8.26297638 7.02053443 2.6015625 4.16796875 C1 3 1 3 0 0 Z " fill="#8438DB" transform="translate(565,537)"/>
<path d="M0 0 C3.647232 1.823616 4.60231663 6.33394525 6 10 C6.7868764 12.65789363 7.40846619 15.28880338 8 18 C2.71113434 13.1040215 0.58744978 7.04939741 0 0 Z " fill="#BF6BF9" transform="translate(477,545)"/>
<path d="M0 0 C0.99 0.66 1.98 1.32 3 2 C2.59007812 2.47050781 2.18015625 2.94101562 1.7578125 3.42578125 C1.21898437 4.04839844 0.68015625 4.67101562 0.125 5.3125 C-0.40867187 5.92738281 -0.94234375 6.54226563 -1.4921875 7.17578125 C-3.1640447 9.13498212 -3.1640447 9.13498212 -5 12 C-5.875 9.9375 -5.875 9.9375 -6 7 C-4.26080867 4.40994275 -2.19602066 2.20875121 0 0 Z " fill="#B35CF7" transform="translate(797,375)"/>
<path d="M0 0 C4.32729759 4.11093271 7.66730529 8.47519674 10 14 C9.67 14.66 9.34 15.32 9 16 C8.67 15.01 8.34 14.02 8 13 C7.34 13 6.68 13 6 13 C4.99491199 11.21118264 3.99607264 9.41885304 3 7.625 C2.1646875 6.12839844 2.1646875 6.12839844 1.3125 4.6015625 C0 2 0 2 0 0 Z " fill="#C36FF6" transform="translate(381,360)"/>
<path d="M0 0 C3 1 3 1 4.421875 3.6171875 C4.86015625 4.69226563 5.2984375 5.76734375 5.75 6.875 C6.19859375 7.94492187 6.6471875 9.01484375 7.109375 10.1171875 C8 13 8 13 7 16 C4 10.25 4 10.25 4 8 C3.34 7.67 2.68 7.34 2 7 C1.26924352 4.6859378 0.59861742 2.35171131 0 0 Z " fill="#E08CFB" transform="translate(422,440)"/>
<path d="M0 0 C1.32 0 2.64 0 4 0 C4.226875 0.94875 4.45375 1.8975 4.6875 2.875 C5.69083714 6.19323388 5.69083714 6.19323388 8.625 7.375 C9.40875 7.58125 10.1925 7.7875 11 8 C9.234375 8.671875 9.234375 8.671875 7 9 C5.078125 7.890625 5.078125 7.890625 3.25 6.25 C2.63640625 5.71890625 2.0228125 5.1878125 1.390625 4.640625 C0 3 0 3 0 0 Z " fill="#631FC0" transform="translate(620,632)"/>
<path d="M0 0 C0.4125 0.556875 0.825 1.11375 1.25 1.6875 C2.98882202 4.0614923 2.98882202 4.0614923 5.125 6.3125 C7.39265233 9.56280168 7.69353352 12.09255242 8 16 C5.46166551 14.73083275 5.10599099 13.58375191 3.875 11.0625 C3.34519531 9.99708984 3.34519531 9.99708984 2.8046875 8.91015625 C2 7 2 7 2 5 C1.34 4.67 0.68 4.34 0 4 C0 2.68 0 1.36 0 0 Z " fill="#DB86FD" transform="translate(456,506)"/>
<path d="M0 0 C1.32 0 2.64 0 4 0 C2.54744301 3.82946843 0.57104439 5.12050295 -3 7 C-2.25 2.25 -2.25 2.25 0 0 Z " fill="#ED96FA" transform="translate(624,376)"/>
<path d="M0 0 C2.55011573 2.46415677 4.40174361 4.80348723 6 8 C5.67 8.99 5.34 9.98 5 11 C2 9 2 9 1.26953125 6.8359375 C1.11871094 6.02382813 0.96789062 5.21171875 0.8125 4.375 C0.65394531 3.55773437 0.49539063 2.74046875 0.33203125 1.8984375 C0.22246094 1.27195312 0.11289062 0.64546875 0 0 Z " fill="#C069F9" transform="translate(338,498)"/>
<path d="M0 0 C3.0916909 2.52956528 3.90931332 5.22454612 5 9 C4.01 9 3.02 9 2 9 C0.14223235 5.86501708 -0.20140476 3.62528568 0 0 Z " fill="#B864F6" transform="translate(328,479)"/>
<path d="M0 0 C3.84330191 1.11028722 6.35602308 1.97831209 9 5 C9.99 5.66 10.98 6.32 12 7 C7.02125936 6.52583422 3.93281242 5.0900669 0 2 C0 1.34 0 0.68 0 0 Z " fill="#4B14A0" transform="translate(514,788)"/>
<path d="M0 0 C-2.64850992 2.64850992 -5.66206447 4.33103223 -9 6 C-8.6875 4.125 -8.6875 4.125 -8 2 C-4.77208445 -0.1519437 -3.71599191 -0.20086443 0 0 Z " fill="#F2A5F9" transform="translate(746,264)"/>
<path d="M0 0 C0.66 0 1.32 0 2 0 C1.67 0.66 1.34 1.32 1 2 C0.67 1.34 0.34 0.68 0 0 Z " fill="#682CB9" transform="translate(522,796)"/>
<path d="" fill="#7E36DF" transform="translate(0,0)"/>
<path d="" fill="#883DE6" transform="translate(0,0)"/>
<path d="" fill="#CA75F9" transform="translate(0,0)"/>
<path d="M0 0 C3 1 3 1 3 1 Z " fill="#EB9CF5" transform="translate(689,312)"/>
<path d="M0 0 C2 1 2 1 2 1 Z " fill="#662EB7" transform="translate(529,797)"/>
<path d="" fill="#7E37DB" transform="translate(0,0)"/>
<path d="" fill="#A95DED" transform="translate(0,0)"/>
<path d="" fill="#AF63EF" transform="translate(0,0)"/>
<path d="" fill="#833AE1" transform="translate(0,0)"/>
<path d="" fill="#843CE4" transform="translate(0,0)"/>
<path d="" fill="#BF72F2" transform="translate(0,0)"/>
<path d="" fill="#C470FA" transform="translate(0,0)"/>
<path d="" fill="#C56FFB" transform="translate(0,0)"/>
<path d="" fill="#C973FB" transform="translate(0,0)"/>
<path d="" fill="#BA65F6" transform="translate(0,0)"/>
<path d="" fill="#E390FA" transform="translate(0,0)"/>
<path d="" fill="#6D6F6E" transform="translate(0,0)"/>
<path d="" fill="#6C6C6D" transform="translate(0,0)"/>
<path d="" fill="#7231CC" transform="translate(0,0)"/>
<path d="" fill="#7335CF" transform="translate(0,0)"/>
<path d="" fill="#7736D0" transform="translate(0,0)"/>
<path d="" fill="#7130C8" transform="translate(0,0)"/>
<path d="" fill="#702ECB" transform="translate(0,0)"/>
<path d="" fill="#944BE6" transform="translate(0,0)"/>
<path d="" fill="#964CE6" transform="translate(0,0)"/>
<path d="" fill="#974BE9" transform="translate(0,0)"/>
<path d="" fill="#A559EE" transform="translate(0,0)"/>
<path d="" fill="#A556EB" transform="translate(0,0)"/>
<path d="" fill="#7E39DD" transform="translate(0,0)"/>
<path d="" fill="#823AE0" transform="translate(0,0)"/>
<path d="" fill="#AE63ED" transform="translate(0,0)"/>
<path d="" fill="#B569F2" transform="translate(0,0)"/>
<path d="" fill="#8C3FE7" transform="translate(0,0)"/>
<path d="" fill="#B96DF1" transform="translate(0,0)"/>
<path d="" fill="#9949EA" transform="translate(0,0)"/>
<path d="" fill="#BF73F2" transform="translate(0,0)"/>
<path d="" fill="#BD71F1" transform="translate(0,0)"/>
<path d="" fill="#BD72F2" transform="translate(0,0)"/>
<path d="" fill="#BE71F1" transform="translate(0,0)"/>
<path d="" fill="#C072F1" transform="translate(0,0)"/>
<path d="" fill="#9A4AF0" transform="translate(0,0)"/>
<path d="" fill="#BF6DF1" transform="translate(0,0)"/>
<path d="" fill="#9D4CF0" transform="translate(0,0)"/>
<path d="" fill="#A653F5" transform="translate(0,0)"/>
<path d="" fill="#D383F8" transform="translate(0,0)"/>
<path d="" fill="#BF73F2" transform="translate(0,0)"/>
<path d="" fill="#BB72F3" transform="translate(0,0)"/>
<path d="" fill="#BF72F4" transform="translate(0,0)"/>
<path d="" fill="#D787F9" transform="translate(0,0)"/>
<path d="" fill="#9046E5" transform="translate(0,0)"/>
<path d="" fill="#B561F8" transform="translate(0,0)"/>
<path d="" fill="#BD70F3" transform="translate(0,0)"/>
<path d="" fill="#B663F7" transform="translate(0,0)"/>
<path d="" fill="#BB65F7" transform="translate(0,0)"/>
<path d="" fill="#D987FC" transform="translate(0,0)"/>
<path d="" fill="#BA66F6" transform="translate(0,0)"/>
<path d="" fill="#C176F0" transform="translate(0,0)"/>
<path d="" fill="#DC89FC" transform="translate(0,0)"/>
<path d="" fill="#BE71F2" transform="translate(0,0)"/>
<path d="" fill="#BB67F7" transform="translate(0,0)"/>
<path d="" fill="#BF72F4" transform="translate(0,0)"/>
<path d="" fill="#BC71F1" transform="translate(0,0)"/>
<path d="" fill="#CE75FC" transform="translate(0,0)"/>
<path d="" fill="#D07AF8" transform="translate(0,0)"/>
<path d="" fill="#DB8AFC" transform="translate(0,0)"/>
<path d="" fill="#BD6FF2" transform="translate(0,0)"/>
<path d="" fill="#DB8BF9" transform="translate(0,0)"/>
<path d="" fill="#B35CF8" transform="translate(0,0)"/>
<path d="" fill="#D783F8" transform="translate(0,0)"/>
<path d="" fill="#DA88F9" transform="translate(0,0)"/>
<path d="" fill="#B466F1" transform="translate(0,0)"/>
<path d="" fill="#B461F5" transform="translate(0,0)"/>
<path d="" fill="#D588F9" transform="translate(0,0)"/>
<path d="" fill="#A058E5" transform="translate(0,0)"/>
<path d="" fill="#DE89FA" transform="translate(0,0)"/>
<path d="" fill="#C46CF9" transform="translate(0,0)"/>
<path d="" fill="#E390FA" transform="translate(0,0)"/>
<path d="" fill="#D181FA" transform="translate(0,0)"/>
<path d="" fill="#AC5EF1" transform="translate(0,0)"/>
<path d="" fill="#E591FB" transform="translate(0,0)"/>
<path d="" fill="#E493F7" transform="translate(0,0)"/>
<path d="" fill="#AD65E6" transform="translate(0,0)"/>
<path d="" fill="#D47CF9" transform="translate(0,0)"/>
<path d="" fill="#AB5DF0" transform="translate(0,0)"/>
<path d="" fill="#D982F9" transform="translate(0,0)"/>
<path d="" fill="#E995F6" transform="translate(0,0)"/>
<path d="" fill="#A359ED" transform="translate(0,0)"/>
<path d="" fill="#E68EFA" transform="translate(0,0)"/>
<path d="" fill="#BF72F4" transform="translate(0,0)"/>
<path d="" fill="#E993F7" transform="translate(0,0)"/>
<path d="" fill="#EB9AF8" transform="translate(0,0)"/>
<path d="" fill="#9B54EB" transform="translate(0,0)"/>
<path d="" fill="#EE9EF8" transform="translate(0,0)"/>
<path d="" fill="#9C51E9" transform="translate(0,0)"/>
<path d="" fill="#EB9CF5" transform="translate(0,0)"/>
<path d="" fill="#EF9FF7" transform="translate(0,0)"/>
<path d="" fill="#EC9EF7" transform="translate(0,0)"/>
<path d="" fill="#9B53E8" transform="translate(0,0)"/>
<path d="" fill="#EC9FF6" transform="translate(0,0)"/>
<path d="" fill="#EEA1F5" transform="translate(0,0)"/>
<path d="" fill="#A55CED" transform="translate(0,0)"/>
<path d="" fill="#9D57EA" transform="translate(0,0)"/>
<path d="" fill="#A15AE9" transform="translate(0,0)"/>
<path d="" fill="#E3A0E8" transform="translate(0,0)"/>
<path d="" fill="#E09DEA" transform="translate(0,0)"/>
<path d="" fill="#E39FE9" transform="translate(0,0)"/>
</svg>
