<svg xmlns="http://www.w3.org/2000/svg" viewBox="113 136 1569 1416" width="1569" height="1416">
  <defs>
    <linearGradient id="vGrad" gradientUnits="objectBoundingBox" x1="0.5" y1="0" x2="0.5" y2="1">
      <stop offset="0%" stop-color="#7E34E8"/>
      <stop offset="34%" stop-color="#DB82FF"/>
      <stop offset="100%" stop-color="#5A16CE"/>
    </linearGradient>
    <linearGradient id="barsGrad" gradientUnits="objectBoundingBox" x1="0.5" y1="0" x2="0.5" y2="1">
      <stop offset="0%" stop-color="#F196FF"/>
      <stop offset="100%" stop-color="#7A2DEC"/>
    </linearGradient>
  </defs>
  <path d="M 232.666666667,145.466666667 c -12.4,0.533333333333 -26.2666666667,1.6 -30.6666666667,2.4 c -31.4666666667,5.46666666667 -39.7333333333,7.06666666667 -42.6666666667,8.13333333333 c -1.86666666667,0.666666666667 -7.33333333333,2.13333333333 -12,3.33333333333 c -17.2,4 -27.3333333333,11.4666666667 -32,23.8666666667 c -3.6,9.2 -1.33333333333,16.5333333333 13.8666666667,46.5333333333 c 7.2,14 22.2666666667,43.6 33.4666666667,65.6 c 11.2,22 28.9333333333,56.8 39.3333333333,77.3333333333 c 10.4,20.5333333333 26.9333333333,52.9333333333 36.6666666667,72 c 9.73333333333,19.0666666667 35.4666666667,70 57.3333333333,113.333333333 c 21.7333333333,43.2 42.2666666667,83.4666666666 45.3333333333,89.3333333333 c 3.2,5.86666666667 12,22.9333333333 19.7333333333,38 c 7.73333333333,15.0666666667 17.2,33.6 21.3333333333,41.3333333333 c 4,7.73333333333 11.0666666667,21.3333333333 15.7333333333,30.2666666667 c 4.66666666667,8.93333333333 10.8,20.6666666667 13.6,26 c 2.93333333333,5.33333333333 10.5333333333,19.8666666667 16.9333333333,32.4 c 6.4,12.4 16.1333333333,31.3333333333 21.7333333333,42 c 12,23.3333333333 27.3333333333,53.0666666667 45.2,88 c 7.33333333333,14.2666666667 16,30.8 19.0666666667,36.6666666667 c 3.2,5.86666666667 9.2,17.2 13.3333333333,25.3333333333 c 4.26666666667,8 9.73333333333,18.5333333333 12.4,23.3333333333 c 2.53333333333,4.8 7.6,14.4 11.2,21.3333333333 c 3.73333333333,6.93333333333 9.2,17.4666666667 12.4,23.3333333333 c 3.2,5.86666666667 8.53333333333,16 12,22.6666666667 c 5.86666666667,11.2 10.5333333333,20 22.4,42 c 2.53333333333,4.8 7.06666666666,13.2 10,18.6666666667 c 2.8,5.46666666667 6.26666666667,11.7333333333 7.6,14 c 1.2,2.13333333333 4.93333333333,8.8 8,14.6666666667 c 6.26666666667,11.6 9.46666666666,17.3333333333 15.8666666667,28.6666666667 c 2.26666666667,4 5.33333333333,9.73333333333 6.8,12.6666666667 c 1.46666666667,2.93333333333 4.13333333333,7.73333333333 5.73333333333,10.6666666667 c 1.73333333333,2.93333333333 4.66666666667,8 6.53333333333,11.3333333333 c 1.86666666667,3.33333333333 6.66666666667,11.6 10.5333333333,18.2666666667 c 4,6.8 8.13333333333,14 9.2,16 c 1.2,2.13333333333 4.26666666667,7.2 6.66666666666,11.4666666667 c 2.53333333333,4.26666666667 5.86666666667,9.73333333333 7.33333333333,12.2666666667 c 8.66666666666,14.8 17.4666666667,28.9333333333 38.8,62 c 50.2666666667,78 105.333333333,140.666666667 151.066666667,171.733333333 c 7.6,5.2 21.0666666667,9.6 29.3333333333,9.6 c 13.6,0 24.8,-6.93333333333 47.3333333333,-29.0666666667 c 14,-13.7333333333 37.6,-42.1333333333 48.8,-58.4 c 22,-32.1333333333 26.1333333333,-39.3333333333 27.4666666667,-47.8666666667 c 1.6,-11.2 -1.06666666667,-18.6666666667 -21.0666666667,-58.6666666667 c -55.8666666667,-111.2 -134.666666667,-267.2 -156.4,-309.333333333 c -22.4,-43.6 -37.3333333333,-72.8 -68,-133.333333333 c -16.4,-32.2666666667 -39.3333333333,-77.6 -50.9333333333,-100.666666667 c -11.7333333333,-23.0666666667 -27.4666666667,-54 -35.0666666667,-68.6666666666 c -7.46666666666,-14.6666666667 -21.4666666667,-42 -30.9333333333,-60.6666666667 c -9.6,-18.6666666667 -25.6,-50.2666666667 -35.7333333333,-70 c -10.1333333333,-19.8666666667 -28.5333333333,-56.1333333333 -41.0666666667,-80.6666666666 c -24,-47.6 -45.0666666667,-88.5333333333 -61.3333333333,-120 c -5.46666666667,-10.6666666667 -17.3333333333,-33.7333333333 -26.2666666667,-51.3333333333 c -8.93333333333,-17.6 -19.6,-38.2666666667 -23.6,-46 c -4.13333333333,-7.73333333333 -13.6,-26 -21.0666666667,-40.6666666667 c -28.1333333333,-54.9333333333 -34.1333333333,-64.6666666667 -48.5333333333,-80.4 c -26.8,-29.2 -48,-39.8666666667 -96.1333333333,-48.4 c -6,-1.06666666667 -57.2,-4.13333333333 -62,-3.6 c -1.06666666667,0 -12.1333333333,0.666666666667 -24.6666666667,1.2 z" fill="url(#vGrad)"/>
  <path d="M 1175.46666667,433.333333333 c -10.1333333333,3.2 -20.8,14.2666666667 -24.9333333333,26 c -2.4,7.06666666666 -2.53333333333,16.1333333333 -2.53333333333,327.333333333 l 0,320 l 2.8,8.53333333333 c 3.46666666667,10.4 11.4666666667,19.6 20.9333333333,23.8666666667 c 4.93333333333,2.26666666667 8.8,2.8 18.2666666667,2.8 c 14.4,0 21.6,-2.8 29.7333333333,-11.2 c 10.8,-11.0666666667 9.86666666666,20.5333333333 9.73333333333,-343.2 c -0.133333333333,-221.733333333 -0.666666666667,-325.866666667 -1.6,-329.466666667 c -1.86666666667,-7.06666666667 -8.26666666666,-15.0666666667 -16.2666666667,-20.6666666667 c -6.26666666667,-4.4 -7.33333333333,-4.66666666667 -19.4666666667,-4.93333333333 c -7.06666666667,-0.133333333333 -14.5333333333,0.266666666666 -16.6666666667,0.933333333333 z M 1324.66666667,277.2 c -9.73333333333,4.66666666667 -16.6666666667,11.7333333333 -21.2,21.4666666667 l -3.46666666667,7.33333333333 l 0,300.666666667 l 0,300.666666667 l 4.13333333333,8.66666666666 c 6.93333333333,14.6666666667 20.1333333333,22.6666666667 37.7333333333,22.6666666667 c 16,0 28.4,-7.86666666666 35.0666666667,-22 l 3.73333333333,-8 l 0.4,-289.333333333 c 0.133333333333,-164 -0.133333333333,-296 -0.933333333333,-304.8 c -1.2,-16.8 -3.73333333333,-22.9333333333 -12.4,-30.4 c -13.6,-11.7333333333 -28.2666666667,-14 -43.0666666667,-6.93333333333 z M 1482.53333333,138.133333333 c -10.8,2.93333333333 -19.6,10.1333333333 -24.8,20.4 l -4.4,8.4 l 0,277.6 l 0,277.733333333 l 3.46666666667,6.53333333333 c 10.9333333333,20.9333333333 33.3333333333,28.9333333333 54.2666666667,19.4666666667 c 10.2666666667,-4.8 18.8,-13.8666666667 21.6,-23.3333333333 c 1.73333333333,-5.86666666667 2,-41.4666666667 2,-281.466666667 c 0,-187.866666667 -0.4,-276.4 -1.46666666667,-279.866666667 c -0.666666666667,-2.8 -3.86666666667,-8.13333333333 -7.06666666667,-12 c -10.5333333333,-12.9333333333 -26.9333333333,-18 -43.6,-13.4666666667 z M 1028.66666667,594.666666667 c -14.2666666667,4.66666666667 -26,16.4 -28.6666666667,28.4 c -1.46666666667,6.93333333333 -2,219.066666667 -0.533333333333,228 c 2.13333333333,12.6666666667 16.6666666667,27.8666666667 28.5333333333,29.8666666667 c 23.3333333333,3.73333333333 37.7333333333,-2.53333333333 46.6666666667,-20.2666666667 l 4.66666666667,-9.33333333333 l 0,-112 l 0,-112 l -3.2,-7.86666666666 c -6.26666666667,-15.4666666667 -18.9333333333,-24.8 -34.8,-25.6 c -4.8,-0.266666666667 -10.4,0.133333333333 -12.6666666667,0.8 z M 1631.2,433.2 c -5.73333333333,1.46666666667 -15.3333333333,8.4 -19.8666666667,14.2666666667 c -6.53333333333,8.53333333333 -7.33333333333,16.1333333333 -7.33333333333,69.2 c 0,52.9333333333 0.933333333333,61.0666666667 7.2,69.3333333333 c 2,2.66666666667 7.06666666667,7.06666666667 11.2,9.73333333333 c 7.2,4.8 7.6,4.93333333333 20.1333333333,4.93333333333 c 11.4666666667,0 13.4666666667,-0.4 18.9333333333,-3.6 c 6.66666666666,-3.86666666667 13.0666666667,-10.5333333333 16.8,-17.4666666667 c 2.13333333333,-3.86666666667 2.4,-9.6 2.8,-58.2666666667 c 0.266666666667,-36.2666666667 0,-56.1333333333 -1.06666666667,-60.6666666667 c -1.73333333333,-8.4 -8.66666666666,-17.7333333333 -16.9333333333,-23.4666666667 c -5.6,-3.86666666667 -7.33333333333,-4.4 -17.0666666667,-4.66666666667 c -5.86666666667,-0.266666666667 -12.5333333333,0 -14.8,0.666666666667 z" fill="url(#barsGrad)"/>
</svg>
